<?xml version="1.0" standalone="no"?>
<!DOCTYPE svg PUBLIC "-//W3C//DTD SVG 1.1//EN" "http://www.w3.org/Graphics/SVG/1.1/DTD/svg11.dtd" >
<svg xmlns="http://www.w3.org/2000/svg" xmlns:xlink="http://www.w3.org/1999/xlink" version="1.1">
<metadata></metadata>
<defs>
<font id="noto_sans_thai_uibold" horiz-adv-x="0" >
<font-face units-per-em="2048" ascent="1638" descent="-410" />
<missing-glyph horiz-adv-x="532" />
<glyph unicode="&#xe24;&#xe45;" horiz-adv-x="1974" d="M113 682v49q0 96 58 177t169 129t266 48q147 0 244.5 -45t148.5 -127h9q45 82 143 127t240 45q223 0 331.5 -110.5t108.5 -290.5v-1098h-307v1059q0 100 -51.5 147.5t-141.5 47.5q-92 0 -143 -49.5t-51 -149.5v-1055h-308v1063q0 96 -54 143.5t-154 47.5 q-96 0 -143.5 -36t-49.5 -87l178 -74l-20 -127q-76 -4 -115 -32.5t-39 -106.5v-111q0 -78 82 -78q41 0 72 13l28 -181q-39 -18 -88 -29t-104 -11q-131 0 -210 64.5t-79 191.5v106q0 113 52.5 172t148.5 86l2 8z" />
<glyph unicode="&#xe26;&#xe45;" horiz-adv-x="1998" d="M45 23l29 167q25 -8 53 -8q66 0 66 66v137q0 176 165 215l2 8l-223 74v49q0 96 57.5 177t170 129t276.5 48q141 0 239.5 -45t143.5 -127h6q47 82 145.5 127t237.5 45q225 0 333.5 -110.5t108.5 -290.5v-1098h-307v1059q0 100 -52 147.5t-142 47.5t-141.5 -49.5 t-51.5 -149.5v-1055h-307v1063q0 96 -54.5 143.5t-154.5 47.5q-96 0 -143 -36t-49 -87l178 -72l-23 -129q-59 -2 -87.5 -36t-28.5 -109v-158q0 -127 -73 -180t-186 -53q-57 0 -104 12t-84 31z" />
<glyph />
<glyph />
<glyph unicode="&#xd;" horiz-adv-x="532" />
<glyph unicode=" "  horiz-adv-x="532" />
<glyph unicode="&#x09;" horiz-adv-x="532" />
<glyph unicode="&#xa0;" horiz-adv-x="532" />
<glyph unicode="-" horiz-adv-x="659" d="M61 424v250h537v-250h-537z" />
<glyph unicode="&#xad;" horiz-adv-x="659" d="M61 424v250h537v-250h-537z" />
<glyph unicode="&#x2bc;" horiz-adv-x="444" d="M29 961q29 121 54.5 258t39.5 243h291l14 -22q-27 -109 -73 -238t-93 -241h-233z" />
<glyph unicode="&#x2d7;" horiz-adv-x="446" d="M25 500v127h397v-127h-397z" />
<glyph unicode="&#x303;" d="M-1032 1239q12 160 77.5 234.5t168.5 74.5q49 0 101 -26.5t103.5 -52t98.5 -25.5q23 0 46 26.5t34 79.5h157q-12 -158 -79.5 -233.5t-163.5 -75.5q-55 0 -107.5 25.5t-103 52.5t-97.5 27q-23 0 -46 -27t-34 -80h-155z" />
<glyph unicode="&#x331;" d="M-905 -156h659v-211h-659v211z" />
<glyph unicode="&#xe01;" horiz-adv-x="1277" d="M113 682v49q0 96 59 177t175 129t282 48q231 0 368.5 -104t137.5 -309v-672h-308v653q0 92 -54 139.5t-152 47.5q-96 0 -143.5 -36t-49.5 -87l182 -76l-22 -131q-74 -4 -111 -50t-37 -122v-338h-307v315q0 123 50 190.5t147 94.5l2 8z" />
<glyph unicode="&#xe02;" horiz-adv-x="1212" d="M92 1024q57 29 124 40t118 11q135 0 191.5 -61.5t56.5 -167.5q0 -57 -18.5 -103.5t-47.5 -93.5q-29 -45 -49.5 -83t-20.5 -109v-74q0 -88 42 -129t118 -41q158 0 158 166v680h305v-688q0 -199 -119 -298.5t-346 -99.5q-229 0 -346 97.5t-117 285.5v72q0 76 22.5 126 t55.5 93t54.5 77t21.5 71q0 33 -18.5 47t-45.5 14q-35 0 -90 -22z" />
<glyph unicode="&#xe03;" horiz-adv-x="1230" d="M80 985v74h219q0 -53 13.5 -75.5t45.5 -22.5q14 0 35 5t39 19l35 74h162v-135q0 -63 -8.5 -103.5t-25.5 -72t-48 -72.5q-27 -37 -48.5 -64.5t-34.5 -63.5t-13 -95v-66q0 -88 44 -131t121 -43q86 0 126 44t40 122v680h305v-688q0 -199 -120 -298.5t-351 -99.5 q-242 0 -357.5 102.5t-115.5 286.5v58q0 86 34 151.5t99 130.5q20 20 44 46t26 53l-6 2q-20 -8 -42 -14.5t-46 -6.5q-76 0 -124 53.5t-48 149.5z" />
<glyph unicode="&#xe04;" horiz-adv-x="1323" d="M143 0v621q0 225 125 344.5t396 119.5q272 0 394 -119.5t122 -344.5v-621h-306v625q0 100 -50 157.5t-165 57.5q-113 0 -163 -57.5t-50 -157.5v-160l7 -2q39 76 92 99.5t149 23.5h47v-228h-47q-102 0 -155.5 -32.5t-73 -87t-19.5 -117.5v-121h-303z" />
<glyph unicode="&#xe05;" horiz-adv-x="1347" d="M143 0v815q0 137 80 203.5t213 66.5q88 0 149.5 -30.5t82.5 -93.5h10q23 63 84 93.5t149 30.5q133 0 213 -66.5t80 -203.5v-815h-305v733q0 57 -23.5 81t-58.5 24q-80 0 -86 -95h-119q-8 94 -86 95q-35 0 -58.5 -23.5t-23.5 -81.5v-268l7 -2q41 76 96 99.5t162 23.5h49 v-228h-49q-111 0 -167.5 -32.5t-76 -87t-19.5 -117.5v-121h-303z" />
<glyph unicode="&#xe06;" horiz-adv-x="1308" d="M88 985v74h219q0 -53 14.5 -75.5t45.5 -22.5q16 0 36.5 5t38.5 19l33 74h172v-135q0 -82 -17.5 -131.5t-68.5 -116.5q-29 -41 -52.5 -69.5t-36.5 -60.5t-13 -81v-14q0 -92 59.5 -147.5t163.5 -55.5q84 0 130 44t46 154v613h307v-684q0 -188 -95 -291.5t-275 -103.5 q-143 0 -236.5 53t-128.5 133h-18l-33 -166h-227v403q0 94 29.5 165t99.5 134q29 27 50 51.5t23 47.5l-6 2q-20 -8 -41.5 -14.5t-46.5 -6.5q-76 0 -124 53.5t-48 149.5z" />
<glyph unicode="&#xe07;" horiz-adv-x="1169" d="M10 1059h309l248 -811h13q63 0 110 59q41 53 61.5 124t20.5 142q0 123 -52 189.5t-145 66.5q-39 0 -61 -8l-57 234q47 14 88 17t69 3q109 0 189 -27.5t137 -80.5q143 -133 143 -387q0 -158 -52 -275t-126 -184q-61 -55 -154.5 -88t-254.5 -33h-160z" />
<glyph unicode="&#xe08;" horiz-adv-x="1144" d="M80 748v253q68 33 170 58.5t235 25.5q297 0 431.5 -135t134.5 -411q0 -260 -126 -399.5t-429 -139.5h-260v440h-117v185h393v-392h14q100 0 156.5 75t56.5 222q0 174 -79.5 243t-233.5 69q-106 0 -192.5 -28t-153.5 -66z" />
<glyph unicode="&#xe09;" horiz-adv-x="1275" d="M154 319v285h295v-190q0 -90 41.5 -129t119.5 -39q100 0 157.5 59.5t57.5 169.5v150q0 121 -73.5 169t-200.5 48q-109 0 -203 -30t-166 -64v253q66 33 183.5 58.5t255.5 25.5q272 0 392 -117.5t120 -338.5v-629h-234l-33 158h-16q-39 -72 -124 -125t-220 -53 q-170 0 -261 79.5t-91 259.5z" />
<glyph unicode="&#xe0a;" horiz-adv-x="1226" d="M92 1024q57 29 124 40t118 11q135 0 191.5 -61.5t56.5 -167.5q0 -57 -18.5 -103.5t-47.5 -93.5q-29 -45 -47 -83t-18 -109v-70q0 -88 44 -131t126 -43q88 0 125.5 45t37.5 121v174q0 57 -27.5 90t-92.5 33h-11v160h13q63 0 94 31.5t40 82.5t9 109h305q0 -121 -32.5 -199 t-114.5 -104v-8q72 -18 97.5 -69.5t25.5 -123.5v-184q0 -199 -119 -298.5t-350 -99.5q-233 0 -353.5 98.5t-120.5 284.5v70q0 76 19.5 127t52.5 94t54.5 77t21.5 71q0 33 -18.5 47t-45.5 14q-35 0 -90 -22z" />
<glyph unicode="&#xe0b;" horiz-adv-x="1234" d="M80 985v74h219q0 -53 14.5 -75.5t44.5 -22.5q16 0 37 5t39 19l33 74h151v-135q0 -63 -6 -103.5t-21.5 -72t-43.5 -72.5q-25 -37 -46.5 -64.5t-33.5 -62.5t-12 -90v-72q0 -90 44 -132t124 -42q90 0 131 45t41 121v174q0 57 -27 90t-86 33h-6v160h8q61 0 90 31.5t37 82.5 t8 109h303q0 -121 -32.5 -198t-114.5 -105v-8q70 -18 96.5 -68.5t26.5 -130.5v-178q0 -398 -475 -398q-238 0 -357 102.5t-119 286.5v58q0 86 32 151.5t97 130.5q20 20 44 46t26 53l-6 2q-20 -8 -42 -14.5t-46 -6.5q-76 0 -124 53.5t-48 149.5z" />
<glyph unicode="&#xe0c;" horiz-adv-x="1898" d="M113 682v49q0 98 58 178t171 128t276 48q227 0 359.5 -100t132.5 -293v-198q0 -113 54.5 -179.5t138.5 -66.5q63 0 104 38t41 128v645h307v-715q0 -180 -82 -272t-252 -92q-127 0 -210 53t-119 133h-17l-33 -166h-235v662q0 98 -52.5 140t-140.5 42q-84 0 -133 -31 t-53 -90l178 -78l-20 -129q-76 -4 -115 -32.5t-39 -106.5v-111q0 -78 82 -78q41 0 72 13l28 -181q-39 -18 -88 -29t-104 -11q-131 0 -210 64.5t-79 191.5v116q0 111 52.5 166t148.5 82l2 8z" />
<glyph unicode="&#xe0d;" horiz-adv-x="1918" d="M113 682v49q0 100 58 180t171 127t274 47q225 0 357.5 -100t132.5 -293v-246q0 -90 43 -128.5t106 -38.5q88 0 141.5 67.5t53.5 179.5v533h307v-924q0 -264 -136 -392t-398 -128q-92 0 -184.5 16.5t-170.5 49.5v256q53 -29 136 -53.5t176 -24.5q131 0 205.5 56t74.5 173 v57h-14q-39 -51 -111.5 -90t-187.5 -39q-154 0 -248 80t-94 254v322q0 94 -55.5 133t-137.5 39q-78 0 -129 -31t-55 -90l178 -78l-20 -129q-76 -4 -115 -32.5t-39 -106.5v-111q0 -78 82 -78q41 0 72 13l28 -181q-39 -18 -88 -29t-104 -11q-131 0 -210 64.5t-79 191.5v116 q0 111 52.5 166t148.5 82l2 8z" />
<glyph unicode="&#xe0e;" horiz-adv-x="1304" d="M45 37l29 166q25 -8 53 -8q66 0 66 67v123q0 176 165 215l2 8l-223 74v49q0 96 57.5 177t171 129t283.5 48q236 0 374 -104t138 -309v-1086h-266q-45 55 -129 84t-156 29t-103.5 -25.5t-31.5 -68.5v-19h-289v35q0 164 89.5 238.5t246.5 74.5q100 0 187.5 -26.5 t144.5 -67.5v813q0 92 -54.5 139.5t-154.5 47.5q-96 0 -143 -36t-49 -87l178 -72l-23 -129q-59 -2 -87.5 -36t-28.5 -109v-146q0 -127 -73 -179t-186 -52q-57 0 -104 12t-84 31z" />
<glyph unicode="&#xe0f;" horiz-adv-x="1304" d="M45 37l29 166q25 -8 53 -8q66 0 66 67v123q0 176 165 215l2 8l-223 74v49q0 96 57.5 177t171 129t283.5 48q236 0 374 -104t138 -309v-1086h-258l-141 101l-105 -101h-71q-20 41 -53 72t-80 31q-49 0 -65.5 -31t-16.5 -61v-11h-246v72q0 137 75.5 200.5t182.5 63.5 q84 0 142.5 -31.5t97.5 -93.5l116 99l115 -74v831q0 92 -54.5 139.5t-154.5 47.5q-96 0 -143 -36t-49 -87l178 -72l-23 -129q-59 -2 -87.5 -36t-28.5 -109v-146q0 -127 -73 -179t-186 -52q-57 0 -104 12t-84 31z" />
<glyph unicode="&#xe10;" horiz-adv-x="1171" d="M84 -350q0 137 68.5 200.5t171.5 63.5q82 0 135 -34t94 -93l106 104l132 -88v140h253v-357h-264l-118 99l-89 -99h-55q-20 41 -52 72t-79 31t-61.5 -31t-14.5 -61v-11h-227v64zM84 748v253q68 33 170 58.5t240 25.5q90 0 164.5 -15t125.5 -50q68 45 70 108h268 q0 -76 -42 -145.5t-134 -114.5q51 -49 80 -134t29 -212q0 -248 -128 -385t-427 -137h-260v440h-117v185h393v-392h14q100 0 156.5 75t56.5 222q0 174 -78.5 243t-232.5 69q-109 0 -194.5 -28t-153.5 -66z" />
<glyph unicode="&#xe11;" horiz-adv-x="1331" d="M80 985v74h213q0 -53 13 -75.5t46 -22.5q16 0 33.5 5t34.5 19l35 74h147v-146h8q51 76 129 120t181 44q133 0 200.5 -66.5t67.5 -185.5v-825h-307v692q0 133 -101 133q-51 0 -98 -33.5t-111 -111.5q-51 -63 -71.5 -117.5t-20.5 -152.5v-410h-307v406q0 88 13.5 154.5 t82.5 135.5q45 45 60.5 63.5t17.5 41.5l-6 2q-20 -8 -42 -14.5t-46 -6.5q-76 0 -124 53.5t-48 149.5z" />
<glyph unicode="&#xe12;" horiz-adv-x="1929" d="M106 543q0 283 87.5 408.5t252.5 125.5q70 0 123.5 -26.5t85.5 -98.5h9q29 74 94 99.5t135 25.5q131 0 200.5 -71.5t69.5 -208.5v-303q0 -113 53.5 -179.5t139.5 -66.5q63 0 104 38t41 128v645h307v-715q0 -365 -329 -364q-135 0 -216 54t-118 132h-17l-32 -166h-236v735 q0 59 -18.5 79t-50.5 20q-33 0 -52.5 -20.5t-25.5 -70.5h-119q-8 53 -28.5 72t-47.5 19q-51 0 -77.5 -62.5t-26.5 -224.5q0 -166 39 -250t159 -84q23 0 42.5 3t35.5 7l31 -217q-66 -26 -160 -26q-176 0 -275.5 68.5t-139.5 195.5t-40 299z" />
<glyph unicode="&#xe13;" horiz-adv-x="1918" d="M113 682v49q0 100 58 180t171 127t274 47q225 0 357.5 -100t132.5 -293v-278q0 -90 43 -128t106 -38q88 0 141.5 66.5t53.5 179.5v565h307v-1059h-237l-35 166h-17q-37 -80 -119.5 -133t-205.5 -53q-168 0 -253 85t-85 265v342q0 94 -55.5 133t-137.5 39q-78 0 -129 -31 t-55 -90l178 -78l-20 -129q-76 -4 -115 -32.5t-39 -106.5v-111q0 -78 82 -78q41 0 72 13l28 -181q-39 -18 -88 -29t-104 -11q-131 0 -210 64.5t-79 191.5v116q0 111 52.5 166t148.5 82l2 8z" />
<glyph unicode="&#xe14;" horiz-adv-x="1298" d="M98 514q0 227 71 351t194.5 172t285.5 48q182 0 294 -49t162 -139t50 -209v-688h-307v664q0 84 -46 130t-153 46q-72 0 -126 -28t-83.5 -96.5t-29.5 -195.5q0 -133 43 -214t149 -81q45 0 82 11l29 -230q-33 -14 -79 -20t-87 -6q-166 0 -264.5 67.5t-141.5 188t-43 278.5z " />
<glyph unicode="&#xe15;" horiz-adv-x="1339" d="M106 543q0 281 88.5 407.5t262.5 126.5q72 0 126 -26.5t87 -98.5h8q29 74 94.5 99.5t140.5 25.5q141 0 212 -71.5t71 -208.5v-797h-307v735q0 57 -20.5 78t-55.5 21q-39 0 -58.5 -20.5t-25.5 -70.5h-121q-8 53 -30.5 72t-53.5 19q-53 0 -79.5 -67t-26.5 -226 q0 -160 41 -244t159 -84q45 0 80 10l31 -217q-66 -26 -158 -26q-182 0 -283.5 70.5t-141.5 196.5t-40 296z" />
<glyph unicode="&#xe16;" horiz-adv-x="1280" d="M113 682v49q0 96 59 177t175 129t282 48q233 0 370.5 -104t137.5 -309v-672h-308v653q0 92 -54 139.5t-154 47.5q-96 0 -143.5 -36t-49.5 -87l178 -74l-20 -127q-76 -4 -115 -30.5t-39 -102.5v-117q0 -78 82 -78q41 0 72 13l28 -181q-39 -18 -88 -29t-104 -11 q-131 0 -210 64.5t-79 191.5v106q0 113 52.5 172t148.5 86l2 8z" />
<glyph unicode="&#xe17;" horiz-adv-x="1318" d="M158 0v1059h225l41 -166h16q35 78 121 131t223 53q391 0 392 -399v-678h-308v612q0 109 -46 154t-134 45q-106 0 -164.5 -79t-58.5 -240v-492h-307z" />
<glyph unicode="&#xe18;" horiz-adv-x="1144" d="M100 786q0 164 131 231.5t353 67.5q139 0 240.5 -20.5t154.5 -42.5v-231q-41 16 -106.5 32.5t-145.5 27.5t-160 11q-68 0 -113.5 -13t-45.5 -46q0 -29 36.5 -44.5t101 -29.5t152.5 -39q117 -33 199 -77t125 -111.5t43 -173.5q0 -100 -44 -180t-148.5 -127.5t-286.5 -47.5 q-127 0 -243 21.5t-206 54.5v414h262v-254q31 -8 77 -15.5t95 -7.5q84 0 142.5 30t58.5 106q0 59 -38 89.5t-109.5 48t-171.5 42.5q-113 27 -191 58.5t-120 83.5t-42 142z" />
<glyph unicode="&#xe19;" horiz-adv-x="1323" d="M143 389v670h308v-613q0 -106 45 -152t131 -46q109 0 168 75.5t59 243.5v492h307v-1059h-233l-33 164h-18q-35 -78 -120.5 -131t-230.5 -53q-186 0 -284.5 104t-98.5 305z" />
<glyph unicode="&#xe1a;" horiz-adv-x="1298" d="M143 438v621h308v-639q0 -98 48 -149.5t150 -51.5t150.5 51.5t48.5 149.5v639h307v-621q0 -225 -120 -345t-386 -120q-268 0 -387 120t-119 345z" />
<glyph unicode="&#xe1b;" horiz-adv-x="1300" d="M143 438v621h308v-639q0 -98 48 -149.5t150 -51.5t150.5 51.5t48.5 149.5v1020h307v-1002q0 -225 -120 -345t-386 -120q-268 0 -387 120t-119 345z" />
<glyph unicode="&#xe1c;" horiz-adv-x="1396" d="M154 0v815q0 152 78.5 207t201.5 55q57 0 102.5 -11t73.5 -26l-41 -196q-16 4 -32.5 5t-26.5 1q-39 0 -54.5 -19.5t-15.5 -52.5v-164q0 -45 -4 -112.5t-14 -169.5h10q41 92 73 146t56 95l76 125h115l75 -125q41 -70 68 -117.5t61 -123.5h11q-10 102 -14.5 169.5 t-4.5 112.5v445h287v-1059h-293l-244 408h-8l-244 -408h-292z" />
<glyph unicode="&#xe1d;" horiz-adv-x="1398" d="M154 0v819q0 152 78.5 207t201.5 55q57 0 102.5 -11t73.5 -26l-41 -198q-16 4 -32.5 6t-26.5 2q-39 0 -54.5 -19.5t-15.5 -54.5v-164q0 -47 -4 -114.5t-14 -167.5h10q41 92 73 146.5t56 94.5l76 125h115l75 -125q41 -70 68 -118.5t61 -122.5h11q-10 100 -14.5 167.5 t-4.5 114.5v828h287v-1444h-293l-244 410h-8l-244 -410h-292z" />
<glyph unicode="&#xe1e;" horiz-adv-x="1488" d="M63 1059h299l56 -361q6 -45 15 -123.5t18 -183.5h6q51 207 84 314l110 354h187l110 -354q33 -106 84 -314h6q10 104 17.5 183t15.5 124l57 361h297l-192 -1059h-301l-127 410q-25 78 -36 142t-19 128h-9q-12 -63 -23 -124.5t-38 -145.5l-129 -410h-293z" />
<glyph unicode="&#xe1f;" horiz-adv-x="1470" d="M63 1059h299l52 -361q4 -37 14 -121.5t18 -185.5h9q20 90 41.5 170t42.5 144l110 354h187l108 -354q20 -63 41 -143.5t43 -170.5h6q10 102 18.5 182t12.5 125l94 742h295l-225 -1440h-301l-127 410q-25 78 -35 142t-21 128h-8q-10 -63 -22.5 -124.5t-38.5 -145.5 l-129 -410h-293z" />
<glyph unicode="&#xe20;" horiz-adv-x="1304" d="M45 23l29 167q25 -8 53 -8q66 0 66 66v137q0 176 165 215l2 8l-223 74v49q0 96 57.5 177t171 129t283.5 48q236 0 374 -104t138 -309v-672h-307v653q0 92 -54.5 139.5t-154.5 47.5q-96 0 -143 -36t-49 -87l178 -72l-23 -129q-59 -2 -87.5 -36t-28.5 -109v-158 q0 -127 -73 -180t-186 -53q-57 0 -104 12t-84 31z" />
<glyph unicode="&#xe21;" horiz-adv-x="1323" d="M162 0v1059h307v-492q0 -168 59.5 -243.5t167.5 -75.5q86 0 131 46t45 152v613h308v-684q0 -188 -95.5 -291.5t-279.5 -103.5q-145 0 -234.5 53t-126.5 133h-16l-33 -166h-233z" />
<glyph unicode="&#xe22;" horiz-adv-x="1273" d="M113 307q0 82 27.5 135.5t70.5 81t90 37.5v12q-72 23 -130 76t-58 156q0 72 35.5 134t115.5 100t211 38q63 0 121.5 -10t93.5 -25l-47 -204q-16 4 -45 9t-55 5q-63 0 -94 -26.5t-31 -67.5q0 -68 57 -89.5t125 -21.5h43v-188h-43q-88 0 -132 -26.5t-44 -88.5 q0 -33 17.5 -64.5t60.5 -53t123 -21.5q113 0 155.5 44t42.5 105v705h307v-697q0 -199 -124 -294t-388 -95q-184 0 -294.5 42t-160.5 118t-50 174z" />
<glyph unicode="&#xe23;" horiz-adv-x="1050" d="M70 74l86 243q59 -35 154.5 -68.5t201.5 -33.5q164 0 164 82q0 45 -62.5 73.5t-171.5 63.5q-162 53 -253 125t-91 213q0 162 125 237.5t332 75.5q115 0 206 -18t140 -45v-240q-53 23 -147.5 45.5t-184.5 22.5q-168 0 -168 -74q0 -43 65.5 -69.5t186.5 -67.5 q158 -53 242 -121.5t84 -206.5q0 -86 -41 -163.5t-140.5 -126t-273.5 -48.5q-121 0 -241.5 26t-212.5 75z" />
<glyph unicode="&#xe24;" horiz-adv-x="1280" d="M113 682v49q0 96 59 177t175 129t282 48q233 0 370.5 -104t137.5 -309v-1086h-308v1067q0 92 -54 139.5t-154 47.5q-96 0 -143.5 -36t-49.5 -87l178 -74l-20 -127q-76 -4 -115 -30.5t-39 -102.5v-117q0 -78 82 -78q41 0 72 13l28 -181q-39 -18 -88 -29t-104 -11 q-131 0 -210 64.5t-79 191.5v106q0 113 52.5 172t148.5 86l2 8z" />
<glyph unicode="&#xe25;" horiz-adv-x="1226" d="M80 283q0 154 117.5 247t371.5 113l213 16v27q0 88 -53 126t-164 38q-106 0 -207.5 -29.5t-175.5 -70.5v251q59 27 168 55.5t252 28.5q139 0 247.5 -36.5t171 -127t62.5 -249.5v-672h-301v440l-178 -18q-123 -12 -171 -45t-48 -84q0 -53 39 -81t104 -28q25 0 49.5 5.5 t45.5 9.5l26 -189q-39 -14 -92.5 -22t-110.5 -8q-176 0 -271 79.5t-95 223.5z" />
<glyph unicode="&#xe26;" horiz-adv-x="1304" d="M45 23l29 167q25 -8 53 -8q66 0 66 66v137q0 176 165 215l2 8l-223 74v49q0 96 57.5 177t171 129t283.5 48q236 0 374 -104t138 -309v-1086h-307v1067q0 92 -54.5 139.5t-154.5 47.5q-96 0 -143 -36t-49 -87l178 -72l-23 -129q-59 -2 -87.5 -36t-28.5 -109v-158 q0 -127 -73 -180t-186 -53q-57 0 -104 12t-84 31z" />
<glyph unicode="&#xe27;" horiz-adv-x="1052" d="M74 61l82 222q45 -25 108.5 -44.5t124.5 -19.5q115 0 182.5 79t67.5 237q0 147 -67.5 226t-211.5 79q-68 0 -139 -18.5t-119 -47.5v252q63 27 143.5 43t170.5 16q283 0 409.5 -145t126.5 -405q0 -279 -133 -420.5t-377 -141.5q-104 0 -196 23.5t-172 64.5z" />
<glyph unicode="&#xe28;" horiz-adv-x="1349" d="M143 0v621q0 225 125 344.5t398 119.5q82 0 151.5 -15t120.5 -50q68 45 70 108h268q0 -72 -39 -139t-125 -115q39 -45 54.5 -110.5t15.5 -145.5v-618h-305v625q0 100 -50.5 157.5t-162.5 57.5q-115 0 -165 -57.5t-50 -157.5v-160l6 -2q41 76 94 99.5t147 23.5h49v-228 h-49q-102 0 -155.5 -32.5t-72.5 -87t-19 -117.5v-121h-306z" />
<glyph unicode="&#xe29;" horiz-adv-x="1382" d="M143 440v619h306v-635q0 -100 52 -153.5t171 -53.5q115 0 164 48t49 153h-86q-98 0 -153.5 31.5t-78 80t-22.5 97.5q0 37 10 75.5t31 63.5l182 -37q-12 -25 -12 -55q0 -27 16 -44.5t45 -17.5h68v447h305v-447h119v-194h-119q-6 -215 -128 -330t-394 -115q-281 0 -403 121 t-122 346z" />
<glyph unicode="&#xe2a;" horiz-adv-x="1232" d="M80 283q0 154 117.5 247t371.5 113l213 16v27q0 88 -53 126t-164 38q-106 0 -207.5 -29.5t-175.5 -70.5v251q59 27 168 55.5t250 28.5q76 0 140.5 -11t111.5 -40q49 39 51 94h268q0 -68 -33.5 -131t-107.5 -110q27 -39 40 -93.5t13 -121.5v-672h-301v440l-178 -18 q-123 -12 -171 -45t-48 -84q0 -53 39 -81t104 -28q25 0 49.5 5.5t45.5 9.5l26 -189q-39 -14 -92.5 -22t-110.5 -8q-176 0 -271 79.5t-95 223.5z" />
<glyph unicode="&#xe2b;" horiz-adv-x="1273" d="M162 0v1059h303v-387h8l348 387h338v-10l-291 -310q141 -25 214 -119t73 -223v-397h-307v346q0 86 -46 129t-132 53l-205 -217v-311h-303z" />
<glyph unicode="&#xe2c;" horiz-adv-x="1452" d="M63 1059h304l51 -424q6 -45 13 -127t7 -182h6q27 86 50.5 151.5t50.5 130.5l94 232h174l94 -232q27 -63 49.5 -129.5t49.5 -152.5h8q2 88 10 170t16 137l27 155q18 109 -26 155t-156 46h-127v199h164q141 0 192 52t51 130v10h293v-10q0 -109 -51 -188.5t-172 -100.5v-8 q88 -31 115.5 -106.5t15.5 -149.5l-135 -817h-320l-104 291q-23 66 -41 130t-37 163h-8q-18 -100 -37.5 -166t-42.5 -129l-109 -289h-305z" />
<glyph unicode="&#xe2d;" horiz-adv-x="1214" d="M98 430q0 39 3 96.5t10 98.5h491v-191h-203v-26q0 -207 189 -207q102 0 159.5 65.5t57.5 239.5q0 164 -64.5 249t-232.5 85q-92 0 -190.5 -27t-161.5 -59v254q66 33 180.5 55t228.5 22q199 0 321 -68.5t178 -194.5t56 -298q0 -266 -124.5 -408.5t-405.5 -142.5 q-250 0 -371 116t-121 341z" />
<glyph unicode="&#xe2e;" horiz-adv-x="1220" d="M98 430q0 39 3 96.5t10 98.5h491v-191h-203v-26q0 -207 189 -207q100 0 158.5 65.5t58.5 233.5q0 178 -68.5 259t-226.5 81q-96 0 -192.5 -27t-163.5 -59v254q43 23 110.5 40t145 27t149.5 10q80 0 148.5 -15t121.5 -50q68 45 70 108h268q0 -72 -38.5 -140t-124.5 -114 q59 -59 87.5 -151t28.5 -215q0 -248 -124.5 -391.5t-407.5 -143.5q-248 0 -369 116t-121 341z" />
<glyph unicode="&#xe2f;" horiz-adv-x="1112" d="M27 754q0 152 90 237.5t250 85.5q29 0 67.5 -4t81.5 -18l-22 -191q-35 8 -60 8q-49 0 -84 -26.5t-35 -83.5t42 -92t122 -35q170 0 170 166v258h307v-1059h-307v475q-86 -72 -241 -72q-102 0 -189.5 38t-139.5 116t-52 197z" />
<glyph unicode="&#xe30;" horiz-adv-x="733" d="M82 295q0 72 41 147l223 -28q-10 -31 -10 -66q0 -29 16.5 -43t57.5 -14h231v-203h-305q-141 0 -197.5 62.5t-56.5 144.5zM82 868q0 72 41 148l223 -29q-10 -31 -10 -65q0 -29 16.5 -43.5t57.5 -14.5h231v-202h-305q-141 0 -197.5 62t-56.5 144z" />
<glyph unicode="&#xe31;" d="M-715 1432q0 78 41 149l223 -29q-10 -31 -10 -57q0 -29 17.5 -44t58.5 -15h440v-199h-516q-96 0 -151.5 28.5t-79 72.5t-23.5 94z" />
<glyph unicode="&#xe32;" horiz-adv-x="890" d="M41 784v242q45 20 127 39.5t192 19.5q113 0 200 -30.5t137.5 -104t50.5 -202.5v-748h-308v692q0 78 -40 114t-130 36q-68 0 -124 -17.5t-105 -40.5z" />
<glyph unicode="&#xe33;" horiz-adv-x="890" d="M-627 1395q0 96 70 149t186 53q117 0 187.5 -53t70.5 -149t-70.5 -149.5t-187.5 -53.5t-186.5 53t-69.5 150zM-463 1395q0 -39 24.5 -61.5t67.5 -22.5q45 0 70 22.5t25 61.5t-25 61.5t-70 22.5q-43 0 -67.5 -22.5t-24.5 -61.5zM41 784v242q45 20 127 39.5t192 19.5 q113 0 200 -30.5t137.5 -104t50.5 -202.5v-748h-308v692q0 78 -40 114t-130 36q-68 0 -124 -17.5t-105 -40.5z" />
<glyph unicode="&#xe34;" d="M-1100 1237v129l207 86h731v-215h-938z" />
<glyph unicode="&#xe35;" d="M-1100 1237v129l207 86h469v141h262v-356h-938z" />
<glyph unicode="&#xe36;" d="M-1100 1237v129l207 86h361q4 72 58 120t146 48q102 0 157.5 -54.5t55.5 -138.5q0 -82 -51 -136t-158 -54h-776zM-416 1427q0 -35 21.5 -58t66.5 -23q43 0 64.5 23.5t21.5 55.5q0 35 -23.5 58.5t-64.5 23.5t-63.5 -22.5t-22.5 -57.5z" />
<glyph unicode="&#xe37;" d="M-1098 1237v129l207 86h223v141h195v-141h121v141h192v-356h-938z" />
<glyph unicode="&#xe38;" d="M-524 -162q29 10 78 20.5t102 10.5q100 0 141 -40t41 -110v-254h-262v183q0 51 -45 51q-10 0 -20.5 -3t-20.5 -5z" />
<glyph unicode="&#xe39;" d="M-874 -152q27 12 72.5 16.5t74.5 4.5q88 0 129 -33t41 -92v-47q0 -35 15.5 -54.5t56.5 -19.5q43 0 59 19.5t16 54.5v166h250v-199q0 -102 -75.5 -154.5t-241.5 -52.5q-164 0 -240 49.5t-76 128.5v35q0 35 -18 42t-49 -1z" />
<glyph unicode="&#xe3a;" d="M-473 -268q0 76 43 116.5t121 40.5q76 0 119 -41t43 -116q0 -76 -43 -117t-119 -41q-78 0 -121 41t-43 117z" />
<glyph unicode="&#xe3f;" horiz-adv-x="1189" d="M137 74v1315h350v167h146v-170q215 -10 314.5 -89.5t99.5 -233.5q0 -115 -68 -193.5t-182 -97.5v-10q121 -20 200.5 -92t79.5 -219q0 -180 -121.5 -278.5t-322.5 -98.5v-195h-146v195h-350zM360 301h127v346h-127v-346zM360 864h127v301h-127v-301zM633 301q106 4 150 53 t44 125q0 66 -43 114t-151 54v-346zM633 866q92 6 129 48t37 108q0 127 -166 141v-297z" />
<glyph unicode="&#xe40;" horiz-adv-x="698" d="M174 236v823h307v-787q0 -70 72 -69q37 0 70 12l28 -195q-39 -18 -88 -29t-104 -11q-139 0 -212 64.5t-73 191.5z" />
<glyph unicode="&#xe41;" horiz-adv-x="1314" d="M174 236v823h307v-787q0 -70 72 -69q37 0 70 12l28 -195q-39 -18 -88 -29t-104 -11q-139 0 -212 64.5t-73 191.5zM790 236v823h307v-787q0 -70 72 -69q37 0 70 12l28 -195q-39 -18 -88 -29t-104 -11q-139 0 -212 64.5t-73 191.5z" />
<glyph unicode="&#xe42;" horiz-adv-x="714" d="M33 1386v123l207 99h522v-222h-344l-2 -6q53 -31 78.5 -87t25.5 -150v-871q0 -70 72 -69q35 0 70 12l28 -195q-39 -18 -88 -29t-104 -11q-137 0 -211 64.5t-74 191.5v935q0 115 -45 165t-135 50z" />
<glyph unicode="&#xe43;" horiz-adv-x="692" d="M47 1354v225q27 14 102.5 35.5t182.5 21.5q162 0 256 -64.5t94 -195.5q0 -78 -32 -134t-66 -101q-35 -43 -57.5 -72t-34 -57.5t-11.5 -75.5v-664q0 -70 70 -69q39 0 72 12l28 -195q-39 -18 -88 -29t-104 -11q-139 0 -212 64.5t-73 191.5v708q0 49 7 82t27.5 62.5 t59.5 70.5t66.5 74t27.5 74q0 94 -139 94q-55 0 -98 -12.5t-78 -34.5z" />
<glyph unicode="&#xe44;" horiz-adv-x="710" d="M0 1386l57 222h652v-222q-76 0 -131.5 -46t-55.5 -169v-899q0 -70 72 -69q37 0 70 12l28 -195q-39 -18 -88 -29t-104 -11q-139 0 -212 64.5t-73 191.5v907q0 106 32 157.5t72 79.5l-2 6h-317z" />
<glyph unicode="&#xe45;" horiz-adv-x="890" d="M41 784v242q45 20 127 39.5t192 19.5q113 0 200 -30.5t137.5 -104t50.5 -202.5v-1162h-308v1106q0 78 -40 114t-130 36q-68 0 -124 -17.5t-105 -40.5z" />
<glyph unicode="&#xe46;" horiz-adv-x="1304" d="M125 729q0 193 84 274.5t219 81.5q78 0 136.5 -24.5t86.5 -75.5h6q27 51 86.5 75.5t141.5 24.5q76 0 138 -24.5t100 -88t38 -179.5v-1207h-307v1198q0 84 -74 84q-76 0 -75 -84v-59h-144v59q0 84 -76 84q-41 0 -60 -30.5t-19 -104.5q0 -80 23.5 -110.5t72.5 -30.5 q33 0 63 12l53 -190q-31 -20 -76.5 -37t-107.5 -17q-145 0 -227 91.5t-82 277.5z" />
<glyph unicode="&#xe47;" d="M-975 1468q0 84 36 138.5t93.5 81t122.5 26.5h516v-149h-463q-39 0 -65.5 -24.5t-26.5 -76.5q0 -39 16.5 -62.5t51.5 -23.5l94 88h41q6 -41 26.5 -67.5t57.5 -26.5q31 0 47 19.5t16 52.5v31h207v-41q0 -111 -56.5 -163t-150.5 -52q-125 0 -176 92l-102 -86 q-129 0 -207 62.5t-78 180.5z" />
<glyph unicode="&#xe48;" d="M-457 1237v465h283v-465h-283z" />
<glyph unicode="&#xe49;" d="M-793 1642q41 33 101.5 45.5t101.5 12.5q92 0 144.5 -43t52.5 -127q0 -53 -31 -94h313v-199h-669v102q27 8 62.5 22.5t62 39t26.5 61.5q0 29 -16.5 45.5t-40.5 16.5q-16 0 -34.5 -6.5t-33.5 -12.5z" />
<glyph unicode="&#xe4a;" d="M-926 1456q0 109 62.5 171.5t169.5 68.5l127 -78l114 78q137 -6 190.5 -60.5t53.5 -128.5q0 -47 -20 -84h159v-186h-417v131q25 8 43 27.5t18 54.5q0 39 -19.5 56.5t-37.5 19.5l-78 -45h-8l-76 45q-18 -2 -35.5 -19.5t-17.5 -54.5q0 -35 18 -56.5t49 -21.5q8 0 18.5 1 t22.5 5l15 -131q-14 -10 -49 -16t-70 -6q-109 0 -170.5 61.5t-61.5 167.5z" />
<glyph unicode="&#xe4b;" d="M-666 1380v179h144v143h246v-143h141v-179h-141v-143h-246v143h-144z" />
<glyph unicode="&#xe4c;" d="M-582 1356q0 86 51.5 146.5t194.5 60.5h297v-207h-197q-82 0 -81 -62q0 -29 16 -61l-242 -41q-16 29 -27.5 74t-11.5 90z" />
<glyph unicode="&#xe4d;" d="M-627 1395q0 96 70 149t186 53q117 0 187.5 -53t70.5 -149t-70.5 -149.5t-187.5 -53.5t-186.5 53t-69.5 150zM-463 1395q0 -39 24.5 -61.5t67.5 -22.5q45 0 70 22.5t25 61.5t-25 61.5t-70 22.5q-43 0 -67.5 -22.5t-24.5 -61.5z" />
<glyph unicode="&#xe4e;" d="M-592 1305q0 80 51.5 117.5t124.5 37.5q39 0 68 -10q-4 16 -4 35q0 74 55 107.5t127 33.5q27 0 63.5 -5t63.5 -17v-138q-14 6 -34.5 9.5t-37.5 3.5q-37 0 -60.5 -18.5t-23.5 -51.5q0 -27 15 -49l-76 -53q-14 14 -32.5 17t-31.5 3q-33 0 -48 -17.5t-15 -39.5q0 -20 12 -45 l-186 -31q-31 45 -31 111z" />
<glyph unicode="&#xe4f;" horiz-adv-x="1318" d="M123 467q0 238 129 364.5t407 126.5q279 0 409 -126.5t130 -364.5q0 -227 -130 -360.5t-409 -133.5t-407.5 133.5t-128.5 360.5zM342 467q0 -154 76.5 -237t238.5 -83t240 83t78 237q0 164 -78 240.5t-240 76.5t-238.5 -76.5t-76.5 -240.5zM457 467q0 102 47 155.5 t153 53.5t154.5 -53.5t48.5 -155.5q0 -94 -48.5 -152.5t-154.5 -58.5t-153 58.5t-47 152.5z" />
<glyph unicode="&#xe50;" horiz-adv-x="1161" d="M96 467q0 238 124 364.5t360 126.5t360.5 -126.5t124.5 -364.5q0 -227 -124.5 -360.5t-360.5 -133.5t-360 133.5t-124 360.5zM391 467q1 -262 189 -262t188 262q0 139 -47 199.5t-141 60.5q-96 0 -142.5 -60.5t-46.5 -199.5z" />
<glyph unicode="&#xe51;" horiz-adv-x="1091" d="M86 594q0 176 103.5 267t322.5 91q260 0 371.5 -126t111.5 -345q0 -147 -48 -262t-153.5 -180.5t-277.5 -65.5q-47 0 -92 6.5t-84 20.5v199q33 -12 98 -13q131 0 196.5 73t65.5 230q0 139 -48 192.5t-138 53.5q-156 0 -156 -129q0 -53 24 -80.5t64 -27.5q23 0 48 10 l43 -186q-27 -25 -76 -39.5t-101 -14.5q-127 0 -200.5 85t-73.5 241z" />
<glyph unicode="&#xe52;" horiz-adv-x="1318" d="M109 440v756h288v-731q0 -121 63.5 -191.5t215.5 -70.5t207 70.5t55 197.5v219q0 74 -43 74q-27 0 -37 -21.5t-12 -60.5h-78q-2 39 -12.5 60.5t-36.5 21.5q-45 0 -45 -102q0 -49 12 -77t47 -28q8 0 22.5 3t28.5 11l45 -151q-27 -16 -57.5 -26.5t-69.5 -10.5 q-111 0 -176 74.5t-65 216.5q0 125 50 199.5t157 74.5q53 0 94 -21.5t59 -66.5h6q39 88 166 88q88 0 151.5 -52t63.5 -179v-273q0 -145 -51 -251.5t-167.5 -163t-317.5 -56.5q-299 0 -431 124t-132 343z" />
<glyph unicode="&#xe53;" horiz-adv-x="1159" d="M96 479q0 248 74 360.5t219 112.5q57 0 106.5 -22.5t86.5 -87.5h6q23 63 84 86.5t125 23.5q248 0 247 -278v-674h-290v627q0 55 -18.5 71.5t-39.5 16.5q-27 0 -42 -18.5t-19 -73.5h-107q-4 57 -21.5 74.5t-35.5 17.5q-80 0 -80 -232q0 -143 29 -214.5t98 -71.5 q10 0 24.5 2t26.5 8l35 -201q-31 -10 -79 -18t-99 -8q-121 0 -193.5 62t-104.5 175t-32 262z" />
<glyph unicode="&#xe54;" horiz-adv-x="1099" d="M96 457q0 133 38 243.5t123 176t228 65.5h76q90 0 121 32t31 107v115h268v-180q0 -139 -72.5 -214t-224.5 -75h-66q-127 0 -177 -73.5t-50 -204.5q0 -123 41 -178.5t129 -55.5h55q-39 57 -38 158q0 227 241 227q94 0 150 -31l-39 -159q-8 4 -20.5 5t-20.5 1 q-72 0 -72 -92q0 -109 115 -109h67v-215h-475q-217 0 -322.5 112.5t-105.5 344.5z" />
<glyph unicode="&#xe55;" horiz-adv-x="1134" d="M96 461q0 176 60.5 293.5t187.5 154.5q-31 23 -50.5 56.5t-19.5 81.5q0 80 57.5 129t160.5 49q104 0 159.5 -51.5t55.5 -129.5q0 -37 -11.5 -65.5t-29.5 -46.5q80 8 101 49t21 139v76h232v-180q0 -139 -79 -214t-230 -75h-78q-137 0 -189.5 -73.5t-52.5 -204.5 q0 -123 43 -178.5t139 -55.5h56q-39 61 -39 158q0 227 241 227q45 0 84 -8t68 -23l-41 -159q-8 4 -20.5 5t-20.5 1q-72 0 -72 -92q0 -109 115 -109h68v-215h-473q-231 0 -337 112.5t-106 348.5zM422 1032q0 -31 18.5 -52.5t53.5 -21.5t54 21.5t19 52.5q0 29 -19.5 50.5 t-53.5 21.5q-35 0 -53.5 -21.5t-18.5 -50.5z" />
<glyph unicode="&#xe56;" horiz-adv-x="1077" d="M49 1196h252l64 -326q72 82 225 82q203 0 297 -131t94 -350q0 -236 -108.5 -367t-344.5 -131q-129 0 -230 44t-165 149l197 147q39 -55 81 -85.5t101 -30.5q92 0 133 69.5t41 200.5q0 139 -42 200.5t-120 61.5q-57 0 -97 -31.5t-42 -93.5h-215z" />
<glyph unicode="&#xe57;" horiz-adv-x="1536" d="M96 487q0 254 74 359.5t215 105.5q57 0 103.5 -22.5t78.5 -87.5h6q29 68 87.5 89t115.5 21q104 0 161.5 -55t57.5 -170v-518q70 0 108 41t38 166v780h282v-756q0 -133 -41 -219t-107.5 -134t-146 -67.5t-155.5 -19.5h-248v631q0 49 -14.5 66.5t-36.5 17.5 q-29 0 -42.5 -19.5t-17.5 -72.5h-94q-4 55 -18.5 73.5t-34.5 18.5q-43 0 -59.5 -56.5t-16.5 -169.5q0 -150 27.5 -221t97.5 -71q12 0 26.5 2t26.5 8l35 -201q-31 -10 -78 -18t-92 -8q-188 0 -263 135t-75 372z" />
<glyph unicode="&#xe58;" horiz-adv-x="1161" d="M96 449q0 137 37 248.5t130 178t257 66.5h70q78 0 104.5 28.5t26.5 104.5v121h285v-180q0 -139 -73 -214t-222 -75h-133q-106 0 -155.5 -70.5t-49.5 -189.5q0 -117 34.5 -165t71.5 -58l76 102h82q0 -70 22.5 -99.5t67.5 -29.5q96 0 96 109q0 49 -20.5 79.5t-36.5 47.5 l166 139q76 -51 107.5 -125t31.5 -170q0 -156 -77 -240t-212 -84q-88 0 -145 35t-78 113l-110 -139q-168 0 -260.5 114.5t-92.5 352.5z" />
<glyph unicode="&#xe59;" horiz-adv-x="1124" d="M96 487q0 252 78 358.5t244 106.5q141 0 200 -84q14 37 45 60.5t78 23.5h11q39 0 54 20.5t15 63.5v160h258v-203q0 -109 -45 -168t-131 -59h-29q-59 0 -78.5 -34t7.5 -109l221 -623h-268l-217 668q-10 35 -23.5 51t-38.5 16t-44 -19.5t-30.5 -73.5t-11.5 -157 q0 -143 27.5 -215.5t99.5 -72.5q10 0 24.5 2t26.5 8l35 -201q-31 -12 -79 -19t-93 -7q-186 0 -261 135t-75 372z" />
<glyph unicode="&#xe5a;" horiz-adv-x="1693" d="M27 754q0 152 90 237.5t250 85.5q29 0 67.5 -4t81.5 -18l-22 -191q-35 8 -58 8q-51 0 -86 -26.5t-35 -83.5t41 -92t125 -35q168 0 168 162v262h307v-414q39 -16 86 -16q84 0 136.5 51t52.5 141v238h307v-1059h-307v494q-37 -39 -88 -59.5t-109 -20.5q-41 0 -78 10v-424 h-307v477q-86 -74 -239 -74q-104 0 -191.5 38t-139.5 116t-52 197z" />
<glyph unicode="&#xe5b;" horiz-adv-x="1855" d="M102 545q0 152 76 248t250 96q147 0 220 -66.5t73 -183.5q0 -47 -11.5 -89t-31.5 -81l-180 59q6 14 11 34t5 40q0 39 -19.5 59.5t-52.5 20.5q-45 0 -62.5 -41t-17.5 -90q0 -104 50.5 -148.5t136.5 -44.5q143 0 200.5 101.5t49.5 273.5h186l86 -248l55 228h152l70 -201 l51 168h135l10 -37q12 -45 25.5 -82t39 -58.5t79.5 -21.5q20 0 34.5 4t24.5 9v-195q-18 -10 -39.5 -17.5t-54.5 -7.5q-143 0 -213 175l-35 -179h-125l-72 234l-53 -254h-158l-63 219q-18 -74 -63.5 -148.5t-132.5 -126t-230 -51.5q-203 0 -304.5 106.5t-101.5 295.5z" />
<glyph unicode="&#x2000;" horiz-adv-x="1052" />
<glyph unicode="&#x2001;" horiz-adv-x="2105" />
<glyph unicode="&#x2002;" horiz-adv-x="1052" />
<glyph unicode="&#x2003;" horiz-adv-x="2105" />
<glyph unicode="&#x2004;" horiz-adv-x="701" />
<glyph unicode="&#x2005;" horiz-adv-x="526" />
<glyph unicode="&#x2006;" horiz-adv-x="350" />
<glyph unicode="&#x2007;" horiz-adv-x="350" />
<glyph unicode="&#x2008;" horiz-adv-x="263" />
<glyph unicode="&#x2009;" horiz-adv-x="421" />
<glyph unicode="&#x200a;" horiz-adv-x="116" />
<glyph unicode="&#x200b;" />
<glyph unicode="&#x200c;" d="M-43 -272v1558h86v-1558h-86z" />
<glyph unicode="&#x200d;" d="M-223 1024l168 168l-168 166l53 55l170 -170l170 170l53 -55l-168 -166l168 -168l-53 -55l-127 127v-1368h-86v1368l-127 -127z" />
<glyph unicode="&#x2010;" horiz-adv-x="659" d="M61 424v250h537v-250h-537z" />
<glyph unicode="&#x2011;" horiz-adv-x="659" d="M61 424v250h537v-250h-537z" />
<glyph unicode="&#x2012;" horiz-adv-x="659" d="M61 424v250h537v-250h-537z" />
<glyph unicode="&#x2013;" horiz-adv-x="1146" d="M61 424v250h1024v-250h-1024z" />
<glyph unicode="&#x2014;" horiz-adv-x="2170" d="M61 424v250h2048v-250h-2048z" />
<glyph unicode="&#x202f;" horiz-adv-x="421" />
<glyph unicode="&#x205f;" horiz-adv-x="526" />
<glyph unicode="&#x25cc;" horiz-adv-x="1216" d="M98 596q0 23 16.5 38t37.5 15q20 0 36.5 -15.5t16.5 -37.5q0 -23 -16.5 -38t-36.5 -15t-37 15t-17 38zM135 424q0 23 16.5 38t36.5 15t37 -15.5t17 -37.5q0 -23 -17 -38t-37 -15t-36.5 15t-16.5 38zM135 768q0 23 16.5 38t36.5 15t37 -15t17 -38t-17 -38t-37 -15 t-36.5 15t-16.5 38zM231 272q0 23 15.5 38.5t38.5 15.5t38 -15.5t15 -38.5t-15 -38t-38 -15t-38.5 15.5t-15.5 37.5zM231 920q0 23 15.5 38t38.5 15t38 -15.5t15 -37.5q0 -23 -15 -38.5t-38 -15.5t-38.5 15.5t-15.5 38.5zM383 176q0 20 15.5 36.5t37.5 16.5q23 0 38 -16 t15 -37q0 -20 -15 -36.5t-38 -16.5t-38 16.5t-15 36.5zM383 1016q0 20 15.5 36.5t37.5 16.5q23 0 38 -16.5t15 -36.5t-15 -36.5t-38 -16.5t-38 16t-15 37zM555 139q0 20 15.5 37t37.5 17q23 0 38.5 -16.5t15.5 -37.5q0 -20 -15.5 -36.5t-38.5 -16.5t-38 16.5t-15 36.5z M555 1053q0 20 15.5 36.5t37.5 16.5q23 0 38.5 -16.5t15.5 -36.5t-15.5 -37t-38.5 -17t-38 16.5t-15 37.5zM727 176q0 20 15.5 36.5t37.5 16.5q23 0 38.5 -16t15.5 -37q0 -20 -15.5 -36.5t-38.5 -16.5t-38 16.5t-15 36.5zM727 1016q0 20 15.5 36.5t37.5 16.5 q23 0 38.5 -16.5t15.5 -36.5t-15.5 -36.5t-38.5 -16.5t-38 16t-15 37zM879 272q0 23 15 38.5t38 15.5t38 -15.5t15 -38.5t-15 -38t-38 -15t-38 15.5t-15 37.5zM879 920q0 23 15 38t38 15t38 -15.5t15 -37.5q0 -23 -15 -38.5t-38 -15.5t-38 15.5t-15 38.5zM975 424 q0 23 16.5 38t36.5 15t36.5 -15.5t16.5 -37.5q0 -23 -16.5 -38t-36.5 -15t-36.5 15t-16.5 38zM975 768q0 23 16.5 38t36.5 15t36.5 -15t16.5 -38t-16.5 -38t-36.5 -15t-36.5 15t-16.5 38zM1012 596q0 23 16 38t37 15q20 0 36.5 -15.5t16.5 -37.5q0 -23 -16.5 -38t-36.5 -15 t-36.5 15t-16.5 38z" />
<glyph unicode="&#x25fc;" horiz-adv-x="1024" d="M0 0z" />
<glyph horiz-adv-x="1228" d="M193 0v1462h841v-1462h-841zM297 104h633v1254h-633v-1254z" />
<glyph horiz-adv-x="1280" d="M113 682v49q0 96 59 177t175 129t282 48q233 0 370.5 -104t137.5 -309v-918h-308v899q0 92 -54 139.5t-154 47.5q-96 0 -143.5 -36t-49.5 -87l178 -74l-20 -127q-76 -4 -115 -30.5t-39 -102.5v-117q0 -78 82 -78q41 0 72 13l28 -181q-39 -18 -88 -29t-104 -11 q-131 0 -210 64.5t-79 191.5v106q0 113 52.5 172t148.5 86l2 8z" />
<glyph horiz-adv-x="1304" d="M45 23l29 167q25 -8 53 -8q66 0 66 66v137q0 176 165 215l2 8l-223 74v49q0 96 57.5 177t171 129t283.5 48q236 0 374 -104t138 -309v-918h-307v899q0 92 -54.5 139.5t-154.5 47.5q-96 0 -143 -36t-49 -87l178 -72l-23 -129q-59 -2 -87.5 -36t-28.5 -109v-158 q0 -127 -73 -180t-186 -53q-57 0 -104 12t-84 31z" />
<glyph horiz-adv-x="1304" d="M45 37l29 166q14 -4 27.5 -6t23.5 -2q68 0 68 67v123q0 178 165 217l2 8l-223 76v47q0 98 57.5 178t171 128t283.5 48q236 0 374 -103t138 -310v-920h-266q-31 27 -79 45.5t-102.5 28.5t-99.5 10q-78 0 -108.5 -23.5t-30.5 -52.5v-8h-289v35q0 102 96.5 153.5t243.5 51.5 q109 0 191 -23.5t137 -56.5v741q0 94 -54.5 141.5t-154.5 47.5q-96 0 -143 -37t-49 -88l178 -72l-23 -129q-59 -2 -87.5 -35.5t-28.5 -109.5v-148q0 -127 -73 -179t-183 -52q-59 0 -106.5 12t-84.5 31z" />
<glyph horiz-adv-x="1304" d="M45 37l29 166q14 -4 27.5 -6t23.5 -2q68 0 68 67v123q0 178 165 217l2 8l-223 76v47q0 98 57.5 178t171 128t283.5 48q236 0 374 -103t138 -310v-920h-291l-114 72l-86 -72h-84q-16 20 -50 43t-85 23q-43 0 -61.5 -17.5t-18.5 -42.5v-6h-246v19q0 100 75.5 144t182.5 44 q90 0 153.5 -28.5t94.5 -77.5l119 100l104 -66v766q0 94 -54.5 141.5t-154.5 47.5q-96 0 -143 -37t-49 -88l178 -72l-23 -129q-59 -2 -87.5 -35.5t-28.5 -109.5v-148q0 -127 -73 -179t-183 -52q-59 0 -106.5 12t-84.5 31z" />
<glyph horiz-adv-x="1867" d="M113 686v47q0 98 57 179t166.5 128t267.5 47q141 0 251 -41.5t172.5 -128t62.5 -215.5v-313q0 -92 45 -131t118 -39q74 0 119 39t45 131v674h307v-649q0 -229 -114.5 -335t-354.5 -106t-353.5 105.5t-113.5 335.5v260q0 96 -51 135t-133 39q-80 0 -126 -31t-50 -92 l178 -78l-20 -129q-76 -2 -115 -32.5t-39 -106.5v-111q0 -80 82 -80q41 0 72 13l28 -181q-39 -18 -88 -29t-104 -11q-131 0 -210 64.5t-79 191.5v116q0 113 52.5 167t148.5 83l2 8z" />
<glyph horiz-adv-x="1171" d="M84 750v256q68 33 170 57t240 24q90 0 163.5 -14t124.5 -51q70 45 72 111h268q0 -76 -42 -145.5t-136 -117.5q51 -47 81 -133t30 -213q0 -248 -128 -386t-427 -138h-260v442h-117v185h393v-394h14q100 0 156.5 75t56.5 224q0 176 -78.5 245t-232.5 69q-109 0 -194.5 -29 t-153.5 -67z" />
<glyph horiz-adv-x="1449" d="M63 1063h316l43 -445q8 -78 9 -168t1 -194h8q18 66 43 137.5t60 155.5l80 203h184l84 -201q27 -63 52.5 -140t51.5 -161h9q6 88 15 155.5t19 137.5l21 135q12 76 -13.5 112.5t-105.5 36.5h-113v189h168q80 0 103.5 28.5t29.5 88.5h295q0 -90 -48 -155t-163 -79v-8 q88 -27 114 -92.5t13 -139.5l-110 -659h-330l-102 274q-23 59 -41.5 117t-34.5 131h-8q-16 -74 -35 -130t-41 -116l-109 -276h-331z" />
<glyph d="M-1507 -156h1261v-211h-1261v211z" />
<glyph d="M-1135 1411q0 76 39 150l224 -29q-4 -14 -6.5 -29.5t-2.5 -27.5q0 -29 17.5 -44.5t58.5 -15.5h258v-198h-334q-96 0 -151 28.5t-79 72.5t-24 93z" />
<glyph d="M-426 1724v381h266v-381h-266z" />
<glyph d="M-852 1217v464h281v-464h-281z" />
<glyph d="M-565 2058q37 27 91 37t93 10q78 0 126 -32.5t48 -102.5q0 -18 -4 -37.5t-14 -36.5h241v-172h-563v84q20 6 50 18.5t52.5 33t22.5 51.5q0 23 -13.5 36t-33.5 13q-35 0 -59 -21z" />
<glyph d="M-1106 1620q41 35 101.5 46t101.5 11q92 0 144 -43t52 -129q0 -23 -7 -47t-23 -45h190v-199h-545v103q27 8 62 22.5t60.5 38t25.5 62.5q0 61 -57 61q-14 0 -33 -6t-33 -12z" />
<glyph d="M-680 1907q0 82 55.5 140t171.5 58l95 -73l88 73q94 0 156.5 -34.5t62.5 -112.5q0 -45 -21 -78h154v-156h-371v113q23 4 39.5 21.5t16.5 46.5q0 25 -13.5 41t-34.5 20l-73 -49h-11l-75 49q-20 0 -33.5 -18.5t-13.5 -44.5q0 -59 59 -60q18 0 35 6l12 -112 q-14 -8 -42.5 -14.5t-59.5 -6.5q-104 0 -150.5 57.5t-46.5 133.5z" />
<glyph d="M-1249 1436q0 111 57 172t152 67l106 -78l98 78q119 -6 169.5 -58t50.5 -128q0 -53 -19 -94h103v-178h-336v131q27 8 43 27.5t16 54.5q0 39 -17.5 58t-37.5 21l-64 -45h-8l-61 45q-23 -2 -39.5 -22.5t-16.5 -54.5q0 -31 16.5 -54.5t49.5 -23.5q8 0 18.5 1t22.5 5l14 -131 q-14 -10 -44.5 -16.5t-59.5 -6.5q-102 0 -157.5 61.5t-55.5 168.5z" />
<glyph d="M-553 1829v172h131v104h246v-104h133v-172h-133v-105h-246v105h-131z" />
<glyph d="M-520 1843q0 53 26.5 100.5t94 77t188.5 29.5h225v-180h-192q-100 0 -101 -76q0 -16 4.5 -35.5t14.5 -36.5l-213 -47q-25 37 -36 82t-11 86z" />
<glyph d="M-1053 1335q0 86 57.5 146.5t200.5 60.5h246v-207h-158q-84 0 -84 -61q0 -29 17 -62l-240 -41q-16 29 -27.5 74t-11.5 90z" />
<glyph d="M-1231 1448q0 125 68.5 185.5t158.5 60.5h455v-150h-407q-35 0 -59.5 -24.5t-24.5 -75.5q0 -37 15 -61.5t48 -24.5l76 88h43q2 -43 19.5 -68.5t50.5 -25.5q27 0 42 19.5t15 51.5v31h184v-41q0 -111 -51 -163t-135 -52q-109 0 -160 92l-80 -86q-119 0 -188.5 62.5 t-69.5 181.5z" />
<glyph d="M-1309 1237v129l168 86h594v-215h-762z" />
<glyph d="M-1309 1217v114l168 88h344v152h250v-354h-762z" />
<glyph d="M-1309 1217v114l168 88h232v4q0 76 52 127.5t146 51.5q96 0 150.5 -55.5t54.5 -139.5q0 -82 -50 -136t-153 -54h-600zM-799 1409q0 -35 21.5 -59.5t64.5 -24.5q41 0 62.5 23.5t21.5 58.5q0 37 -23.5 60.5t-62.5 23.5t-61.5 -23.5t-22.5 -58.5z" />
<glyph d="M-1309 1217v114l168 88h158v152h166v-152h102v152h166v-152h2v-202h-762z" />
<glyph d="M-627 1397q0 96 70 149t186 53q117 0 187.5 -53t70.5 -149t-70.5 -149.5t-187.5 -53.5t-186.5 53t-69.5 150zM-487 1724v381h266v-381h-266zM-463 1397q0 -39 24.5 -61.5t67.5 -22.5q45 0 70 22.5t25 61.5t-25 61.5t-70 22.5q-43 0 -67.5 -22.5t-24.5 -61.5z" />
<glyph d="M-627 1397q0 96 70 149t186 53q117 0 187.5 -53t70.5 -149t-70.5 -149.5t-187.5 -53.5t-186.5 53t-69.5 150zM-626 2058q37 27 91 37t93 10q78 0 126 -32.5t48 -102.5q0 -18 -4 -37.5t-14 -36.5h241v-172h-563v84q20 6 50 18.5t52.5 33t22.5 51.5q0 23 -13.5 36t-33.5 13 q-35 0 -59 -21zM-463 1397q0 -39 24.5 -61.5t67.5 -22.5q45 0 70 22.5t25 61.5t-25 61.5t-70 22.5q-43 0 -67.5 -22.5t-24.5 -61.5z" />
<glyph d="M-741 1907q0 82 55.5 140t171.5 58l95 -73l88 73q94 0 156.5 -34.5t62.5 -112.5q0 -45 -21 -78h154v-156h-371v113q23 4 39.5 21.5t16.5 46.5q0 25 -13.5 41t-34.5 20l-73 -49h-11l-75 49q-20 0 -33.5 -18.5t-13.5 -44.5q0 -59 59 -60q18 0 35 6l12 -112 q-14 -8 -42.5 -14.5t-59.5 -6.5q-104 0 -150.5 57.5t-46.5 133.5zM-627 1397q0 96 70 149t186 53q117 0 187.5 -53t70.5 -149t-70.5 -149.5t-187.5 -53.5t-186.5 53t-69.5 150zM-463 1397q0 -39 24.5 -61.5t67.5 -22.5q45 0 70 22.5t25 61.5t-25 61.5t-70 22.5 q-43 0 -67.5 -22.5t-24.5 -61.5z" />
<glyph d="M-627 1397q0 96 70 149t186 53q117 0 187.5 -53t70.5 -149t-70.5 -149.5t-187.5 -53.5t-186.5 53t-69.5 150zM-614 1829v172h131v104h246v-104h133v-172h-133v-105h-246v105h-131zM-463 1397q0 -39 24.5 -61.5t67.5 -22.5q45 0 70 22.5t25 61.5t-25 61.5t-70 22.5 q-43 0 -67.5 -22.5t-24.5 -61.5z" />
<glyph d="M-457 -403q0 55 43 89.5t121 34.5q76 0 119 -34.5t43 -89.5q0 -57 -43 -92t-119 -35q-78 0 -121 34.5t-43 92.5z" />
<glyph d="M-506 -309q29 10 79 20t101 10q100 0 141.5 -39.5t41.5 -109.5v-107h-263v35q0 51 -45 51q-10 0 -21 -3t-20 -5z" />
<glyph d="M-836 -291q29 8 65 10t60 2q88 0 129 -25.5t41 -70.5v-6q0 -20 15.5 -36.5t56.5 -16.5q43 0 59.5 16.5t16.5 36.5v96h250v-129q0 -70 -76 -99.5t-242 -29.5q-164 0 -239.5 25.5t-75.5 75.5v14q0 27 -13.5 37t-33.5 8z" />
<glyph d="M-1081 1360v178h143v143h246v-143h141v-178h-141v-143h-246v143h-143z" />
<glyph d="M-1057 1395q0 96 70 149t186 53q117 0 187.5 -53t70.5 -149t-70.5 -149.5t-187.5 -53.5t-186.5 53t-69.5 150zM-893 1395q0 -39 24.5 -61.5t67.5 -22.5q45 0 70 22.5t25 61.5t-25 61.5t-70 22.5q-43 0 -67.5 -22.5t-24.5 -61.5z" />
<glyph d="M-955 1395q0 96 70 149t186 53q117 0 187.5 -53t70.5 -149t-70.5 -149.5t-187.5 -53.5t-186.5 53t-69.5 150zM-815 1722v381h266v-381h-266zM-791 1395q0 -39 24.5 -61.5t67.5 -22.5q45 0 70 22.5t25 61.5t-25 61.5t-70 22.5q-43 0 -67.5 -22.5t-24.5 -61.5z" />
<glyph d="M-953 1397q0 96 70 149t186 53q117 0 187.5 -53t70.5 -149t-70.5 -149.5t-187.5 -53.5t-186.5 53t-69.5 150zM-952 2058q37 27 91 37t93 10q78 0 126 -32.5t48 -102.5q0 -18 -4 -37.5t-14 -36.5h241v-172h-563v84q20 6 50 18.5t52.5 33t22.5 51.5q0 23 -13.5 36t-33.5 13 q-35 0 -59 -21zM-789 1397q0 -39 24.5 -61.5t67.5 -22.5q45 0 70 22.5t25 61.5t-25 61.5t-70 22.5q-43 0 -67.5 -22.5t-24.5 -61.5z" />
<glyph d="M-1069 1905q0 82 55.5 140t171.5 58l95 -73l88 73q94 0 156.5 -34.5t62.5 -112.5q0 -45 -21 -78h154v-156h-371v113q23 4 39.5 21.5t16.5 46.5q0 25 -13.5 41t-34.5 20l-73 -49h-11l-75 49q-20 0 -33.5 -18.5t-13.5 -44.5q0 -59 59 -60q18 0 35 6l12 -112 q-14 -8 -42.5 -14.5t-59.5 -6.5q-104 0 -150.5 57.5t-46.5 133.5zM-955 1395q0 96 70 149t186 53q117 0 187.5 -53t70.5 -149t-70.5 -149.5t-187.5 -53.5t-186.5 53t-69.5 150zM-791 1395q0 -39 24.5 -61.5t67.5 -22.5q45 0 70 22.5t25 61.5t-25 61.5t-70 22.5 q-43 0 -67.5 -22.5t-24.5 -61.5z" />
<glyph d="M-953 1397q0 96 70 149t186 53q117 0 187.5 -53t70.5 -149t-70.5 -149.5t-187.5 -53.5t-186.5 53t-69.5 150zM-940 1829v172h131v104h246v-104h133v-172h-133v-105h-246v105h-131zM-789 1397q0 -39 24.5 -61.5t67.5 -22.5q45 0 70 22.5t25 61.5t-25 61.5t-70 22.5 q-43 0 -67.5 -22.5t-24.5 -61.5z" />
</font>
</defs>
</svg>
