<?xml version="1.0" standalone="no"?>
<!DOCTYPE svg PUBLIC "-//W3C//DTD SVG 1.1//EN" "http://www.w3.org/Graphics/SVG/1.1/DTD/svg11.dtd" >
<svg xmlns="http://www.w3.org/2000/svg">
<metadata>Generated by IcoMoon</metadata>
<defs>
<font id="icokbank" horiz-adv-x="1024">
<font-face units-per-em="1024" ascent="960" descent="-64" />
<missing-glyph horiz-adv-x="1024" />
<glyph unicode="&#x20;" horiz-adv-x="512" d="" />
<glyph unicode="&#xe601;" glyph-name="line" d="M510.72 935.978c-281.643 0-510.763-185.899-510.763-414.464 0-204.843 181.717-376.533 427.136-408.96 16.64-3.541 39.296-11.051 45.013-25.173 5.163-12.843 3.371-33.067 1.664-46.165 0 0-5.973-36.011-7.253-43.776-2.219-12.885-10.283-50.517 44.245-27.563 54.528 22.997 294.144 173.269 401.28 296.576 74.069 81.152 109.525 163.584 109.525 255.061-0.171 228.565-229.248 414.464-510.848 414.464zM310.741 385.578h-101.504c-14.72 0-26.752 11.989-26.752 26.795v202.965c0 14.72 12.032 26.795 26.752 26.795 14.805 0 26.795-12.032 26.795-26.795v-176.171h74.709c14.805 0 26.795-12.032 26.795-26.795 0-14.848-11.989-26.795-26.795-26.795zM415.701 412.33c0-14.805-12.032-26.795-26.795-26.795s-26.795 11.989-26.795 26.795v203.008c0 14.72 12.032 26.795 26.795 26.795 14.72 0 26.795-12.032 26.795-26.795v-203.008zM660.011 412.33c0-11.563-7.381-21.803-18.347-25.429-2.773-0.853-5.589-1.365-8.491-1.365-8.363 0-16.384 3.968-21.419 10.709l-103.979 141.611v-125.525c0-14.805-11.989-26.795-26.795-26.795-14.763 0-26.795 11.989-26.795 26.795v203.008c0 11.52 7.381 21.76 18.304 25.429 2.773 0.853 5.632 1.365 8.491 1.365 8.405 0 16.384-3.968 21.419-10.709l104.021-141.696v125.611c0 14.72 12.032 26.795 26.795 26.795 14.805 0 26.795-12.032 26.795-26.795v-203.008zM824.32 540.586c14.72 0 26.752-11.989 26.752-26.795 0-14.763-12.032-26.795-26.752-26.795h-74.752v-47.872h74.752c14.677 0 26.752-12.032 26.752-26.795 0-14.805-12.075-26.795-26.752-26.795h-101.589c-14.72 0-26.709 11.989-26.709 26.795v101.376c0 0.043 0 0.043 0 0.085 0 0 0 0.043 0 0.085v101.461c0 14.72 12.032 26.795 26.709 26.795h101.589c14.72 0 26.752-12.032 26.752-26.795 0-14.805-12.032-26.795-26.752-26.795h-74.752v-47.872l74.752-0.085z" />
<glyph unicode="&#xe602;" glyph-name="share-alt" d="M719.28 277.779c-28.422 0-53.817-11.127-73.227-28.718l-266.718 155.125c1.911 8.602 3.413 17.271 3.413 26.192s-1.525 17.567-3.413 26.169l263.737 153.691c20.093-18.591 46.717-30.242 76.208-30.242 62.145 0 112.276 50.017 112.276 112.208 0 62.032-50.108 112.162-112.276 112.162-62.077 0-112.185-50.13-112.185-112.162 0-9.034 1.502-17.545 3.391-26.192l-263.691-153.782c-20.161 18.705-46.74 30.333-76.254 30.333-62.168 0-112.276-50.085-112.276-112.162 0-62.054 50.085-112.162 112.276-112.162 29.491 0 56.092 11.628 76.208 30.242l266.286-155.489c-1.843-7.919-2.981-16.156-2.981-24.371 0-60.234 49.061-109.227 109.181-109.227 60.211 0 109.318 48.924 109.318 109.227 0 60.234-49.084 109.158-109.272 109.158z" />
<glyph unicode="&#xe900;" glyph-name="facebook" d="M800.768 639.231h-182.101v81.28c0 38.229 25.344 47.147 43.179 47.147s127.488 0 127.488 0v168.192l-184.704 0.555c-167.552 0-199.296-125.355-199.296-205.653v-91.52h-128v-170.667h128c0-222.379 0-512 0-512h213.333c0 0 0 292.267 0 512h164.309l17.792 170.667z" />
<glyph unicode="&#xe901;" glyph-name="twitter" d="M1000.277 751.487c-34.731-15.488-64-16-95.061-0.683 40.021 23.979 41.856 40.832 56.32 86.144-37.461-22.229-78.976-38.4-123.136-47.104-35.285 37.632-85.675 61.227-141.44 61.227-107.093 0-193.877-86.869-193.877-193.877 0-15.189 1.707-29.995 4.992-44.203-161.109 8.064-304 85.248-399.616 202.581-16.683-28.629-26.24-61.952-26.24-97.493 0-67.285 34.261-126.592 86.229-161.365-31.787 1.024-61.653 9.728-87.765 24.235-0.043-0.811-0.043-1.579-0.043-2.432 0-93.952 66.816-172.288 155.563-190.123-28.416-7.723-58.368-8.917-87.595-3.371 24.704-76.971 96.299-133.035 181.12-134.613-82.987-65.024-185.856-92.117-287.061-80.256 85.845-54.997 187.691-87.083 297.216-87.083 356.608 0 551.595 295.424 551.595 551.637 0 8.448-0.128 16.768-0.512 25.088 37.845 27.307 83.328 52.779 109.312 91.691z" />
<glyph unicode="&#xe902;" glyph-name="youtube" d="M856.021 787.071h-688c-92.629 0-168.021-75.435-168.021-168.064v-389.163c0-92.672 75.392-168.107 168.021-168.107h688c92.587 0 167.979 75.435 167.979 168.064v389.205c0 92.629-75.392 168.064-167.979 168.064zM705.621 423.082l-288.768-184.789c-3.499-2.219-7.509-3.371-11.52-3.371-3.541 0-7.040 0.896-10.24 2.688-6.827 3.669-11.093 10.88-11.093 18.645v369.579c0 7.808 4.267 14.976 11.093 18.731 6.869 3.712 15.189 3.413 21.76-0.768l288.811-184.832c6.144-3.925 9.813-10.667 9.813-17.963s-3.712-13.995-9.856-17.92z" />
<glyph unicode="&#xe903;" glyph-name="lock" d="M128-66.262h768v640h-128v128c0 141.184-114.859 256-256 256-141.184 0-256-114.816-256-256v-128h-128v-640zM469.333 317.738c0 23.552 19.115 42.667 42.667 42.667 23.509 0 42.667-19.115 42.667-42.667 0-15.701-8.661-29.355-21.333-36.693v-112.64c0-11.733-9.6-21.333-21.333-21.333-11.776 0-21.333 9.6-21.333 21.333v112.64c-12.715 7.339-21.333 20.992-21.333 36.693zM298.667 701.738c0 117.632 95.659 213.333 213.333 213.333 117.632 0 213.333-95.701 213.333-213.333v-128h-426.667v128z" />
<glyph unicode="&#xe904;" glyph-name="envelope" d="M968.875 745.429l-443.477-358.955c-3.883-3.157-8.661-4.736-13.397-4.736s-9.515 1.579-13.44 4.736l-443.435 358.955c-7.723-12.8-12.459-27.648-12.459-43.691v-469.333c0-47.061 38.272-85.333 85.333-85.333h768c47.061 0 85.333 38.272 85.333 85.333v469.333c0 16.043-4.736 30.891-12.459 43.691zM938.155 775.509c-12.501 7.125-26.752 11.563-42.155 11.563h-768c-15.403 0-29.653-4.437-42.155-11.563l426.155-345.003 426.155 345.003z" />
<glyph unicode="&#xe905;" glyph-name="map-marker" d="M512 957.482c-188.203 0-341.333-153.088-341.333-341.333 0-181.077 310.315-653.099 323.541-673.067 3.925-5.931 10.624-9.6 17.792-9.6s13.824 3.627 17.792 9.6c13.227 19.968 323.541 491.989 323.541 673.067 0 188.203-153.131 341.333-341.333 341.333zM512 466.815c-82.347 0-149.333 67.029-149.333 149.333s66.987 149.333 149.333 149.333 149.333-67.029 149.333-149.333-66.987-149.333-149.333-149.333z" />
<glyph unicode="&#xe906;" glyph-name="phone" d="M938.624 202.922l-104.661 104.661c-20.651 20.651-48.085 32.043-77.312 32.043s-56.661-11.392-77.355-32.043l-28.032-28.032c-109.653 90.709-214.955 196.011-305.451 305.493l28.032 28.032c42.624 42.624 42.624 112 0 154.624l-104.661 104.661c-20.651 20.651-48.128 32.043-77.312 32.043-29.227 0-56.704-11.392-77.355-32.043l-57.429-57.429c-53.035-52.992-61.44-137.003-20.053-199.68 167.851-253.739 390.699-476.587 644.48-644.437 26.069-17.237 56.363-26.368 87.595-26.368 42.368 0 82.176 16.512 112.043 46.421l57.429 57.429c20.651 20.608 32.043 48.085 32.043 77.312s-11.349 56.661-32 77.312z" />
<glyph unicode="&#xe907;" glyph-name="search" d="M384 189.738c90.923 0 174.464 31.957 240.341 84.992l326.741-328.405c16.597-16.725 43.563-16.811 60.331-0.128 16.725 16.64 16.768 43.648 0.171 60.331l-327.168 328.832c52.181 65.493 83.584 148.309 83.584 238.379 0 211.755-172.245 384-384 384s-384-172.245-384-384c0-211.712 172.245-384 384-384zM384 872.405c164.651 0 298.667-133.973 298.667-298.667 0-164.651-134.016-298.667-298.667-298.667-164.693 0-298.667 134.016-298.667 298.667 0 164.693 133.973 298.667 298.667 298.667z" />
<glyph unicode="&#xe908;" glyph-name="arrow-left" d="M679.617-61.884c-9.626 0-19.274 3.368-27.056 10.263l-531.433 470.084c-8.761 7.76-13.79 18.91-13.79 30.629s5.029 22.847 13.79 30.629l531.433 470.084c16.953 14.996 42.758 13.403 57.708-3.527 14.973-16.907 13.38-42.758-3.55-57.708l-496.799-439.478 496.777-439.478c16.93-14.95 18.523-40.801 3.55-57.708-8.055-9.125-19.319-13.79-30.629-13.79z" />
<glyph unicode="&#xe909;" glyph-name="arrow-right" d="M297.574-61.884c9.626 0 19.274 3.368 27.056 10.263l531.433 470.084c8.761 7.76 13.79 18.91 13.79 30.629s-5.029 22.847-13.79 30.629l-531.41 470.084c-16.953 14.996-42.758 13.403-57.708-3.527-14.973-16.907-13.38-42.758 3.55-57.708l496.777-439.478-496.777-439.478c-16.93-14.95-18.523-40.801-3.55-57.708 8.055-9.125 19.319-13.79 30.629-13.79z" />
<glyph unicode="&#xe90a;" glyph-name="close" d="M572.416 445.695l439.125 439.168c16.683 16.597 16.683 43.605 0 60.331-16.683 16.683-43.691 16.683-60.331 0l-439.168-439.168-439.168 439.168c-16.683 16.683-43.691 16.683-60.331 0-16.683-16.725-16.683-43.691 0-60.331l439.125-439.168-439.125-439.168c-16.683-16.725-16.683-43.691 0-60.331 8.32-8.32 19.243-12.501 30.165-12.501s21.845 4.181 30.165 12.501l439.168 439.168 439.168-439.168c8.32-8.32 19.243-12.501 30.165-12.501s21.845 4.181 30.165 12.501c16.683 16.64 16.683 43.605 0 60.331l-439.125 439.168z" />
<glyph unicode="&#xe90b;" glyph-name="file" d="M871.579 655.924l-218.944 218.944c-3.43 3.43-8.064 5.364-12.918 5.364h-474.378c-10.035 0-18.245-8.174-18.245-18.245v-839.284c0-10.071 8.21-18.245 18.245-18.245h693.322c10.035 0 18.245 8.174 18.245 18.245v620.341c0 4.817-1.898 9.451-5.328 12.881zM621.472 624.761v218.944l218.944-218.944h-218.944z" />
<glyph unicode="&#xe90c;" glyph-name="lock-o" d="M512 270.364c-28.791 0-52.255 23.463-52.255 52.255s23.463 52.255 52.255 52.255 52.255-23.463 52.255-52.255-23.427-52.255-52.255-52.255zM512 333.055c-5.766 0-10.436-4.671-10.436-10.436 0-11.495 20.909-11.495 20.909 0-0.036 5.766-4.707 10.436-10.473 10.436zM512 144.982c-17.297 0-31.345 14.049-31.345 31.345v125.382c0 17.297 14.049 31.345 31.345 31.345s31.345-14.049 31.345-31.345v-125.382c0-17.297-14.049-31.345-31.345-31.345zM867.273-64h-710.546c-17.297 0-31.345 14.049-31.345 31.345v585.127c0 17.297 14.049 31.345 31.345 31.345h710.546c17.297 0 31.345-14.049 31.345-31.345v-585.127c0-17.297-14.049-31.345-31.345-31.345zM188.073-1.309h647.855v522.436h-647.855v-522.436zM741.891 521.128h-459.782c-17.297 0-31.345 14.049-31.345 31.345v146.291c0 144.029 117.208 261.236 261.236 261.236s261.236-117.208 261.236-261.236v-146.291c0-17.297-14.049-31.345-31.345-31.345zM313.454 583.855h397.055v114.945c0 109.472-89.074 198.546-198.546 198.546s-198.509-89.11-198.509-198.582v-114.909z" />
<glyph unicode="&#xe90d;" glyph-name="arrow-down" d="M1.024 673.553c0-9.626 3.368-19.274 10.263-27.056l470.107-531.41c7.76-8.761 18.91-13.79 30.629-13.79s22.847 5.029 30.629 13.79l470.107 531.41c14.996 16.953 13.403 42.758-3.527 57.708-16.907 14.973-42.758 13.38-57.708-3.55l-439.524-496.799-439.478 496.777c-14.95 16.93-40.801 18.523-57.708 3.55-9.125-8.055-13.79-19.319-13.79-30.629z" />
<glyph unicode="&#xe90e;" glyph-name="arrow-up" d="M1022.976 243.154c0 9.626-3.368 19.274-10.263 27.056l-470.084 531.41c-7.76 8.761-18.91 13.79-30.629 13.79s-22.847-5.029-30.629-13.79l-470.084-531.41c-14.996-16.953-13.403-42.758 3.527-57.708 16.907-14.973 42.758-13.38 57.708 3.55l439.478 496.799 439.478-496.777c14.95-16.93 40.801-18.523 57.708-3.55 9.125 8.055 13.79 19.297 13.79 30.629z" />
<glyph unicode="&#xe90f;" glyph-name="file-o" d="M822.17-11.38h-620.341c-10.071 0-18.245 8.174-18.245 18.245v839.284c0 10.071 8.174 18.245 18.245 18.245h401.397c4.853 0 9.488-1.934 12.918-5.328l218.944-218.944c3.43-3.43 5.328-8.064 5.328-12.918v-620.341c0-10.071-8.137-18.245-18.245-18.245zM220.075 25.111h583.85v594.542l-208.252 208.252h-375.598v-802.794zM822.17 608.961h-218.944c-10.071 0-18.245 8.174-18.245 18.245v218.944c0 10.071 8.174 18.245 18.245 18.245s18.245-8.174 18.245-18.245v-200.698h200.698c10.071 0 18.245-8.174 18.245-18.245s-8.137-18.245-18.245-18.245zM512 572.47h-164.208c-10.071 0-18.245 8.174-18.245 18.245s8.174 18.245 18.245 18.245h164.208c10.071 0 18.245-8.174 18.245-18.245s-8.137-18.245-18.245-18.245zM676.208 462.998h-328.416c-10.071 0-18.245 8.174-18.245 18.245s8.174 18.245 18.245 18.245h328.416c10.071 0 18.245-8.174 18.245-18.245s-8.137-18.245-18.245-18.245zM676.208 353.526h-328.416c-10.071 0-18.245 8.174-18.245 18.245s8.174 18.245 18.245 18.245h328.416c10.071 0 18.245-8.174 18.245-18.245s-8.137-18.245-18.245-18.245zM676.208 244.054h-328.416c-10.071 0-18.245 8.174-18.245 18.245s8.174 18.245 18.245 18.245h328.416c10.071 0 18.245-8.174 18.245-18.245s-8.137-18.245-18.245-18.245zM676.208 134.582h-328.416c-10.071 0-18.245 8.174-18.245 18.245s8.174 18.245 18.245 18.245h328.416c10.071 0 18.245-8.174 18.245-18.245s-8.137-18.245-18.245-18.245z" />
<glyph unicode="&#xe910;" glyph-name="map-marker-o" d="M512-0.98c-6.13 0-11.859 3.065-15.217 8.21-11.312 17.114-276.708 420.737-276.708 575.64 0 160.96 130.965 291.925 291.925 291.925s291.925-130.965 291.925-291.925c0-154.939-265.396-558.562-276.708-575.64-3.357-5.145-9.086-8.21-15.217-8.21zM512 838.304c-140.854 0-255.434-114.581-255.434-255.434 0-123.922 198.29-442.704 255.434-531.997 57.144 89.293 255.434 408.111 255.434 531.997 0 140.854-114.581 255.434-255.434 255.434zM512 455.153c-70.427 0-127.717 57.29-127.717 127.717s57.29 127.717 127.717 127.717 127.717-57.29 127.717-127.717-57.29-127.717-127.717-127.717zM512 674.096c-50.284 0-91.227-40.942-91.227-91.227s40.942-91.227 91.227-91.227c50.321 0 91.227 40.942 91.227 91.227s-40.906 91.227-91.227 91.227z" />
<glyph unicode="&#xe911;" glyph-name="percent-badge" d="M366.037 283.793c-4.671 0-9.342 1.788-12.918 5.328-7.116 7.116-7.116 18.683 0 25.799l291.925 291.925c7.116 7.116 18.683 7.116 25.799 0s7.116-18.683 0-25.799l-291.925-291.925c-3.54-3.54-8.21-5.328-12.881-5.328zM402.528 484.491c-40.249 0-72.981 32.732-72.981 72.981s32.732 72.981 72.981 72.981 72.981-32.732 72.981-72.981-32.732-72.981-72.981-72.981zM402.528 593.963c-20.143 0-36.491-16.384-36.491-36.491s16.348-36.491 36.491-36.491 36.491 16.384 36.491 36.491-16.348 36.491-36.491 36.491zM621.472 265.547c-40.249 0-72.981 32.732-72.981 72.981s32.732 72.981 72.981 72.981 72.981-32.732 72.981-72.981-32.732-72.981-72.981-72.981zM621.472 375.019c-20.143 0-36.491-16.384-36.491-36.491s16.348-36.491 36.491-36.491 36.491 16.384 36.491 36.491-16.348 36.491-36.491 36.491zM512 28.358c-231.387 0-419.642 188.255-419.642 419.642s188.255 419.642 419.642 419.642 419.642-188.255 419.642-419.642-188.255-419.642-419.642-419.642zM512 831.152c-211.281 0-383.152-171.871-383.152-383.152s171.871-383.152 383.152-383.152 383.152 171.871 383.152 383.152-171.871 383.152-383.152 383.152z" />
<glyph unicode="&#xe912;" glyph-name="phone-call" d="M645.191 17.156c-24.376 0-48.897 6.897-70.354 21.092-188.875 124.944-354.689 290.757-479.56 479.523-33.389 50.43-26.602 118.011 16.092 160.668l42.548 42.475c35.578 35.578 93.452 35.578 128.994 0l77.433-77.397c35.542-35.578 35.542-93.452 0-129.031 0 0 0 0 0 0l-14.049-14.049c63.092-75.39 135.636-147.933 211.281-211.208l14.049 14.049c34.374 34.447 94.511 34.52 128.994 0l77.433-77.397c35.505-35.615 35.505-93.489 0-128.994l-42.512-42.475c-24.558-24.595-57.29-37.257-90.351-37.257zM218.396 711.134c-14.012 0-28.025-5.328-38.717-15.983l-42.439-42.512c-30.47-30.433-35.323-78.71-11.458-114.763 122.171-184.716 284.408-346.989 469.196-469.233 36.053-23.792 84.33-19.012 114.763 11.495l42.512 42.475c21.311 21.311 21.274 56.050 0 77.397l-77.433 77.397c-20.654 20.654-56.743 20.617-77.397 0l-25.799-25.799c-6.641-6.641-17.224-7.152-24.485-1.204-86.264 70.719-169.134 153.553-239.561 239.561-5.948 7.262-5.401 17.844 1.204 24.449l25.799 25.799c21.311 21.347 21.311 56.123 0 77.47l-77.47 77.433c-10.692 10.655-24.704 16.019-38.717 16.019zM931.569 436.615c-10.071 0-18.245 8.174-18.245 18.245 0 221.316-180.081 401.397-401.397 401.397-10.071 0-18.245 8.174-18.245 18.245s8.174 18.245 18.245 18.245c241.458 0 437.888-196.429 437.888-437.888 0-10.108-8.174-18.245-18.245-18.245zM785.607 436.615c-10.071 0-18.245 8.174-18.245 18.245 0 140.854-114.617 255.434-255.434 255.434-10.071 0-18.245 8.174-18.245 18.245s8.174 18.245 18.245 18.245c160.96 0 291.925-130.965 291.925-291.925 0-10.108-8.174-18.245-18.245-18.245zM639.644 436.615c-10.071 0-18.245 8.174-18.245 18.245 0 60.355-49.116 109.472-109.472 109.472-10.071 0-18.245 8.174-18.245 18.245s8.174 18.245 18.245 18.245c80.498 0 145.963-65.464 145.963-145.963 0-10.108-8.174-18.245-18.245-18.245z" />
<glyph unicode="&#xe913;" glyph-name="list" d="M292.437 807.935c0-24.875 20.395-45.269 45.227-45.269h641.067c24.917 0 45.269 20.395 45.269 45.269s-20.352 45.269-45.269 45.269h-641.067c-24.789-0.043-45.227-20.395-45.227-45.269v0zM337.664 423.338h641.067c24.917 0 45.269 20.352 45.269 45.227s-20.352 45.269-45.269 45.269h-641.067c-24.832 0-45.227-20.352-45.227-45.269 0-24.875 20.437-45.227 45.227-45.227v0zM337.664 83.925h641.067c24.917 0 45.269 20.437 45.269 45.269 0 24.917-20.352 45.269-45.269 45.269h-641.067c-24.832 0-45.227-20.352-45.227-45.269 0-24.875 20.437-45.269 45.227-45.269v0zM58.667 762.666h75.435c24.875 0 45.269 20.395 45.269 45.269s-20.352 45.269-45.269 45.269h-75.435c-24.875 0-45.269-20.352-45.269-45.269 0-24.875 20.395-45.269 45.269-45.269v0zM58.667 423.338h75.435c24.875 0 45.269 20.352 45.269 45.227s-20.352 45.269-45.269 45.269h-75.435c-24.875 0-45.269-20.352-45.269-45.269 0-24.875 20.395-45.227 45.269-45.227v0zM58.667 83.925h75.435c24.875 0 45.269 20.437 45.269 45.269 0 24.917-20.352 45.269-45.269 45.269h-75.435c-24.875 0-45.269-20.352-45.269-45.269 0-24.875 20.395-45.269 45.269-45.269v0z" />
<glyph unicode="&#xe914;" glyph-name="check" d="M1019.904 755.555l-101.626 103.196-609.508-619.543-203.093 206.529-101.581-103.287 304.765-309.726z" />
<glyph unicode="&#xe915;" glyph-name="plus" d="M569.048 503.219v454.519h-113.664v-454.519h-454.474l0.046-113.573h454.428v-454.451h113.664v454.451h454.406v113.573z" />
<glyph unicode="&#xe916;" glyph-name="clock-o" d="M511.568 957.556c-280.439 0-508.655-229.353-508.655-511.317 0-281.919 228.193-511.249 508.655-511.249 280.371 0 508.587 229.33 508.587 511.249 0 281.964-228.193 511.317-508.587 511.317zM760.377 197.475c-8.055-8.715-21.504-9.148-29.946-1.343l-254.407 234.359c-4.324 4.096-6.804 9.739-6.804 15.747v234.405c0 11.696 9.489 21.231 21.163 21.231 11.696 0 21.208-9.535 21.208-21.231v-225.075l247.489-227.988c8.579-7.942 9.17-21.367 1.297-30.106z" />
<glyph unicode="&#xe917;" glyph-name="google-plus" d="M671.403 447.9c0-184.161-149.823-333.892-333.938-333.892-184.138 0-333.983 149.732-333.983 333.892s149.845 333.983 333.983 333.983c74.251 0 144.68-23.916 203.503-69.2l-77.528-100.83c-36.5 27.989-79.986 42.78-125.975 42.78-113.983 0-206.825-92.729-206.825-206.734 0-113.96 92.843-206.689 206.825-206.689 91.773 0 169.779 60.188 196.699 143.087h-196.699v127.249h333.938v-63.647zM1022.976 406.325h-95.664v-95.71h-83.24v95.71h-95.596v83.194h95.596v95.687h83.24v-95.687h95.664z" />
<glyph unicode="&#xe918;" glyph-name="print" d="M151.711 536.806c-11.765 0-21.276-9.512-21.276-21.208 0-11.719 9.489-21.185 21.276-21.185 11.583 0 21.026 9.466 21.026 21.185 0 11.696-9.444 21.208-21.026 21.208zM914.546 663.941h-805.296c-58.391 0-105.904-47.514-105.904-105.904v-254.271c0-58.482 47.514-105.973 105.904-105.973h105.95v-190.737c0-11.742 9.58-21.185 21.254-21.185h550.844c11.787 0 21.276 9.444 21.276 21.185v190.737h105.995c58.322 0 105.904 47.491 105.904 105.973v254.271c0 58.391-47.582 105.904-105.927 105.904zM151.711 452.064c-35.112 0-63.602 28.49-63.602 63.556s28.49 63.534 63.602 63.534c34.953 0 63.488-28.467 63.488-63.534s-28.535-63.556-63.488-63.556zM766.18 28.219h-508.564v296.664h508.564v-296.664zM236.453 706.312h550.844c11.787 0 21.276 9.489 21.276 21.231v42.325c0 5.666-2.276 11.082-6.19 15.064l-127.181 127.135c-3.959 3.937-9.307 6.144-14.996 6.144h-423.754c-11.674 0-21.254-9.444-21.254-21.185v-169.483c0-11.742 9.557-21.231 21.254-21.231zM660.184 897.003l127.113-127.135h-127.113v127.135zM321.172 240.164h381.406c11.742 0 21.231 9.466 21.231 21.185 0 11.674-9.489 21.208-21.231 21.208h-381.406c-11.696 0-21.185-9.535-21.185-21.208 0.023-11.719 9.512-21.185 21.185-21.185zM321.172 155.423h381.406c11.742 0 21.231 9.398 21.231 21.185 0 11.628-9.489 21.185-21.231 21.185h-381.406c-11.696 0-21.185-9.557-21.185-21.185 0.023-11.787 9.512-21.185 21.185-21.185zM321.172 70.635h381.406c11.742 0 21.231 9.466 21.231 21.163 0 11.674-9.489 21.208-21.231 21.208h-381.406c-11.696 0-21.185-9.535-21.185-21.208 0.023-11.696 9.512-21.163 21.185-21.163z" />
<glyph unicode="&#xe919;" glyph-name="location-arrow" d="M888.656 889.172l-847.641-425.517 433.545-73.018 157.858-414.351 256.237 912.886z" />
<glyph unicode="&#xe91a;" glyph-name="cloud-download" d="M192.125 245.944c-9.284 0-88.997 1.593-142.882 54.75-31.994 31.494-48.219 74.069-48.219 126.566 0 54.841 24.394 106.109 66.901 140.652 36.159 29.4 81.761 43.509 127.226 40.164 21.094 156.695 155.489 276.207 315.961 276.207 117.692 0 226.759-66.264 281.759-170.007 58.869-1.343 114.005-24.235 156.581-65.286 46.262-44.601 71.726-104.494 71.726-168.687 0-204.39-208.122-233.859-210.239-234.155l-67.402-0.182c-12.265 0-22.187 9.921-22.187 22.187s9.921 22.187 22.187 22.187h64.535c4.119 0.728 168.755 24.872 168.755 189.986 0 52.042-20.662 100.602-58.163 136.761-37.342 35.999-87.245 54.909-138.604 52.793-10.308-0.774-17.112 4.688-20.867 12.675-45.306 95.619-142.677 157.4-248.058 157.4-145.044 0-265.375-113.459-273.954-258.298-0.364-6.44-3.55-12.379-8.67-16.293s-11.628-5.461-18.022-4.096c-40.619 8.533-82.375-1.616-114.551-27.739-32.108-26.101-50.517-64.831-50.517-106.223 0-40.073 11.696-71.953 34.77-94.777 42.689-42.28 112.299-43.008 112.481-42.189h84.833c12.265 0 22.187-9.921 22.187-22.187s-9.921-22.187-22.187-22.187h-84.582c-0.137-0.023-0.41-0.023-0.796-0.023zM511.113 10.743c-12.265 0-22.187 9.921-22.187 22.187v443.529c0 12.265 9.921 22.187 22.187 22.187s22.187-9.921 22.187-22.187v-443.551c-0.023-12.242-9.944-22.164-22.187-22.164zM511.113 10.743c-5.666 0-11.355 2.162-15.679 6.508l-133.052 133.052c-8.67 8.67-8.67 22.687 0 31.357s22.687 8.67 31.357 0l117.373-117.373 117.373 117.373c8.67 8.67 22.687 8.67 31.357 0s8.67-22.687 0-31.357l-133.052-133.052c-4.346-4.324-10.012-6.508-15.679-6.508z" />
<glyph unicode="&#xe91b;" glyph-name="application-form" d="M998.241-61.861h-973.46c-11.696 0-21.163 9.466-21.163 21.163v973.437c0 11.696 9.466 21.163 21.163 21.163h973.46c11.696 0 21.163-9.466 21.163-21.163v-973.46c0-11.674-9.466-21.14-21.163-21.14zM45.943-19.536h931.135v931.112h-931.135v-931.112zM448.034 699.972h-169.301c-11.696 0-21.163 9.466-21.163 21.163s9.466 21.163 21.163 21.163h169.301c11.696 0 21.163-9.466 21.163-21.163s-9.466-21.163-21.163-21.163zM448.034 572.996h-296.277c-11.696 0-21.163 9.466-21.163 21.163s9.466 21.163 21.163 21.163h296.277c11.696 0 21.163-9.466 21.163-21.163s-9.466-21.163-21.163-21.163zM448.034 446.020h-296.277c-11.696 0-21.163 9.466-21.163 21.163s9.466 21.163 21.163 21.163h296.277c11.696 0 21.163-9.466 21.163-21.163s-9.466-21.163-21.163-21.163zM871.265 319.044h-719.508c-11.696 0-21.163 9.466-21.163 21.163s9.466 21.163 21.163 21.163h719.508c11.696 0 21.163-9.466 21.163-21.163s-9.466-21.163-21.163-21.163zM659.638 192.068h-507.881c-11.696 0-21.163 9.466-21.163 21.163s9.466 21.163 21.163 21.163h507.881c11.696 0 21.163-9.466 21.163-21.163s-9.466-21.163-21.163-21.163zM871.265 446.020h-338.603c-11.696 0-21.163 9.466-21.163 21.163v338.603c0 11.696 9.466 21.163 21.163 21.163h338.603c11.696 0 21.163-9.466 21.163-21.163v-338.603c0-11.696-9.466-21.163-21.163-21.163zM553.847 488.346h296.277v296.277h-296.277v-296.277z" />
<glyph unicode="&#xe91c;" glyph-name="calculator" d="M341.242 109.443c-5.439 0-10.854 2.071-15.019 6.212l-169.825 169.825c-8.283 8.283-8.283 21.732 0 30.015s21.732 8.283 30.015 0l169.825-169.825c8.283-8.283 8.283-21.732 0-30.015-4.119-4.142-9.557-6.212-14.996-6.212zM171.418 109.443c-5.439 0-10.854 2.071-15.019 6.212-8.283 8.283-8.283 21.732 0 30.015l169.825 169.825c8.283 8.283 21.732 8.283 30.015 0s8.283-21.732 0-30.015l-169.825-169.825c-4.119-4.142-9.557-6.212-14.996-6.212zM235.11 555.247c-11.742 0-21.231 9.489-21.231 21.231v212.264c0 11.742 9.489 21.231 21.231 21.231s21.231-9.489 21.231-21.231v-212.287c0-11.719-9.489-21.208-21.231-21.208zM341.242 661.379h-212.287c-11.742 0-21.231 9.489-21.231 21.231s9.489 21.231 21.231 21.231h212.287c11.742 0 21.231-9.489 21.231-21.231s-9.489-21.231-21.231-21.231zM850.716 661.379h-212.287c-11.742 0-21.231 9.489-21.231 21.231s9.489 21.231 21.231 21.231h212.287c11.742 0 21.231-9.489 21.231-21.231s-9.489-21.231-21.231-21.231zM850.716 151.905h-212.287c-11.742 0-21.231 9.489-21.231 21.231s9.489 21.231 21.231 21.231h212.287c11.742 0 21.231-9.489 21.231-21.231s-9.489-21.231-21.231-21.231zM850.716 236.828h-212.287c-11.742 0-21.231 9.489-21.231 21.231s9.489 21.231 21.231 21.231h212.287c11.742 0 21.231-9.489 21.231-21.231s-9.489-21.231-21.231-21.231zM489.836-60.382c-11.742 0-21.231 9.489-21.231 21.231v976.509c0 11.742 9.489 21.231 21.231 21.231s21.231-9.489 21.231-21.231v-976.486c0-11.742-9.489-21.254-21.231-21.254zM999.31 449.092h-976.486c-11.742 0-21.231 9.489-21.231 21.231s9.489 21.231 21.231 21.231h976.486c11.742 0 21.231-9.489 21.231-21.231s-9.489-21.231-21.231-21.231zM871.947-60.382h-721.761c-81.92 0-148.594 66.674-148.594 148.594v721.761c0 81.92 66.674 148.594 148.594 148.594h721.761c81.92 0 148.594-66.674 148.594-148.594v-721.761c0-81.92-66.651-148.594-148.594-148.594zM150.187 916.127c-58.55 0-106.132-47.627-106.132-106.132v-721.761c0-58.527 47.605-106.132 106.132-106.132h721.761c58.55 0 106.132 47.627 106.132 106.132v721.738c0 58.527-47.605 106.132-106.132 106.132h-721.761z" />
<glyph unicode="&#xe91d;" glyph-name="map-signs" d="M870.484 888.88l-327.759-46.234 80.498-85.753c-50.43-40.906-227.738-201.319-273.643-466.715-2.080-6.203 0-310.353 0-310.353h144.941v308.309c0 0 39.483 231.752 225.476 365.709l85.644-91.227 64.844 326.263zM220.476 729.489c0 0 131.549-79.148 195.553-216.864-62.654-97.102-72.288-199.677-72.288-199.677s-50.941 175.556-221.389 310.608l98.123 105.932z" />
<glyph unicode="&#xe91e;" glyph-name="minus" d="M0 504.752h1024v-112.208h-1024v112.208z" />
<glyph unicode="&#xe91f;" glyph-name="video" d="M840.533 819.2h-657.067c-89.6 0-162.133-72.533-162.133-162.133v-371.2c0-89.6 72.533-162.133 162.133-162.133h657.067c89.6 0 162.133 72.533 162.133 162.133v371.2c0 89.6-72.533 162.133-162.133 162.133zM960 281.6c0-64-55.467-119.467-119.467-119.467h-657.067c-64 0-119.467 55.467-119.467 119.467v375.467c0 64 55.467 119.467 119.467 119.467h657.067c64 0 119.467-55.467 119.467-119.467v-375.467zM422.4 678.4c-8.533 4.267-12.8 4.267-21.333 0-8.533 0-12.8-8.533-12.8-17.067v-354.133c0-8.533 4.267-17.067 12.8-17.067 4.267 0 8.533-4.267 8.533-4.267 4.267 0 8.533 0 12.8 4.267l277.333 174.933c4.267 4.267 8.533 12.8 8.533 17.067s-4.267 12.8-8.533 17.067l-277.333 179.2zM430.933 345.6v277.333l213.333-136.533-213.333-140.8z" />
<glyph unicode="&#xe920;" glyph-name="volume-up" d="M604.729-46.478c-6.144 0-12.174 2.389-16.703 6.918l-323.925 323.925h-155.648c-52.133 0-94.527 42.416-94.527 94.527v141.79c0 52.133 42.394 94.527 94.527 94.527h155.648l323.925 323.925c6.736 6.758 16.976 8.829 25.759 5.12 8.806-3.641 14.586-12.288 14.586-21.823v-945.289c0-9.557-5.78-18.182-14.586-21.823-2.913-1.206-6.007-1.798-9.057-1.798zM108.453 567.945c-26.055 0-47.263-21.208-47.263-47.263v-141.79c0-26.078 21.208-47.263 47.263-47.263h165.433c6.281 0 12.288-2.503 16.703-6.918l290.497-290.497v831.169l-290.497-290.497c-4.437-4.437-10.422-6.918-16.703-6.918h-165.433zM841.045 142.575c-6.781 0-13.517 2.913-18.227 8.579-8.306 10.058-6.872 24.917 3.186 33.269 80.919 66.924 133.211 171.099 133.211 265.353 0 94.413-52.292 198.565-133.211 265.353-10.058 8.306-11.492 23.211-3.186 33.269 8.26 10.081 23.256 11.446 33.269 3.186 91.341-75.412 150.369-193.877 150.369-301.807 0-107.77-59.028-226.213-150.369-301.807-4.369-3.595-9.739-5.393-15.041-5.393zM746.519 260.745c-7.282 0-14.495 3.368-19.115 9.739-7.669 10.559-5.348 25.35 5.211 32.996 38.684 28.103 84.787 76.345 84.787 146.318 0 69.951-46.103 118.192-84.787 146.318-10.559 7.691-12.88 22.46-5.211 32.996 7.669 10.604 22.482 12.834 32.996 5.211 67.243-48.902 104.266-114.438 104.266-184.525 0-70.155-37.023-135.646-104.266-184.525-4.187-3.049-9.034-4.528-13.881-4.528z" />
<glyph unicode="&#xe921;" glyph-name="play-circle" d="M924.604 486.958l-751.935 456.795c-11.833 7.191-26.419 7.191-38.252 0-11.856-7.191-19.137-20.48-19.137-34.884v-913.567c0-14.473 7.282-27.739 19.137-34.907 5.894-3.573 12.516-5.439 19.115-5.439s13.244 1.866 19.137 5.439l751.935 456.818c11.81 7.214 19.206 20.48 19.206 34.884s-7.418 27.671-19.206 34.862zM191.807 65.024v774.098l637.065-387.026-637.065-387.072z" />
<glyph unicode="&#xe922;" glyph-name="pencil" d="M35.328-50.859c-5.589 0-11.051 2.219-15.104 6.229-5.248 5.205-7.381 12.757-5.675 19.968l64.725 275.883c0.896 3.883 2.859 7.424 5.675 10.197l9.643 9.643c0.341 0.427 0.725 0.811 1.067 1.152s0.768 0.768 1.152 1.067l562.901 562.944c0.128 0.128 0.299 0.256 0.427 0.427 0.085 0.085 0.213 0.213 0.341 0.299l59.733 59.776c0.085 0.043 0.128 0.128 0.213 0.213s0.128 0.128 0.213 0.213l29.952 29.952c40.277 40.277 110.677 40.235 150.869 0l90.539-90.539c41.515-41.557 41.515-109.227 0.043-150.869l-28.757-28.757c-0.469-0.512-0.896-0.981-1.365-1.493-0.469-0.469-0.939-0.939-1.493-1.365l-58.197-58.197c-0.384-0.469-0.811-0.896-1.237-1.365-0.427-0.427-0.853-0.811-1.28-1.195l-561.92-561.707c-0.256-0.299-0.512-0.555-0.768-0.811s-0.512-0.512-0.811-0.768l-9.941-9.941c-2.816-2.773-6.315-4.779-10.197-5.675l-275.883-64.768c-1.621-0.341-3.243-0.512-4.864-0.512zM116.181 221.525l-52.224-222.464 222.464 52.224-170.24 170.24zM140.971 257.067l180.949-180.949 533.845 533.632-180.608 181.547-534.187-534.229zM705.28 821.461l180.608-181.547 30.677 30.677-181.077 181.077-30.208-30.208zM765.653 881.835l181.077-181.077 15.104 15.061c24.875 24.96 24.875 65.621 0 90.581l-90.539 90.539c-24.107 24.107-66.347 24.192-90.539 0l-15.104-15.104z" />
<glyph unicode="&#xe923;" glyph-name="pencil-square-o" d="M823.751-52.622h-791.893c-11.378 0-20.48 9.102-20.48 20.48v876.089c0 11.378 9.102 20.48 20.48 20.48h666.738c11.378 0 20.48-9.102 20.48-20.48s-6.827-20.48-20.48-20.48h-646.258v-835.129h750.933v500.622c0 11.378 9.102 20.48 20.48 20.48s20.48-9.102 20.48-20.48v-521.102c2.276-11.378-6.827-20.48-20.48-20.48zM461.938 377.458c-4.551 0-11.378 2.276-13.653 6.827-6.827 6.827-6.827 15.929-4.551 25.031l59.164 118.329c0 2.276 2.276 4.551 4.551 4.551l398.222 398.222c29.582 29.582 65.991 22.756 88.747 0s29.582-59.164 0-88.747l-398.222-398.222c-2.276-2.276-4.551-2.276-4.551-4.551l-118.329-59.164c-4.551-2.276-6.827-2.276-11.378-2.276zM539.307 504.889l-29.582-59.164 59.164 29.582 395.947 395.947c13.653 13.653 2.276 27.307 0 29.582s-15.929 13.653-29.582 0l-395.947-395.947zM580.267 457.102v0 0zM919.324 775.68c-4.551 0-11.378 2.276-13.653 6.827l-59.164 59.164c-9.102 9.102-9.102 20.48 0 29.582s20.48 9.102 29.582 0l59.164-59.164c9.102-9.102 9.102-20.48 0-29.582-4.551-4.551-9.102-6.827-15.929-6.827z" />
<glyph unicode="&#xe924;" glyph-name="webchat" d="M149.868 194.094c-2.753 0-5.507 0.546-8.146 1.616-7.964 3.277-13.13 11.059-13.13 19.661v148.912h-106.359c-11.765 0-21.276 9.512-21.276 21.276v510.589c0 11.765 9.512 21.276 21.276 21.276h808.414c11.765 0 21.276-9.512 21.276-21.276v-276.571c0-11.765-9.512-21.276-21.276-21.276s-21.276 9.512-21.276 21.276v255.295h-765.884v-468.036h106.359c11.765 0 21.276-9.512 21.276-21.276v-118.83l133.871 133.871c3.982 3.982 9.398 6.235 15.041 6.235h42.553c11.765 0 21.276-9.512 21.276-21.276s-9.512-21.276-21.276-21.276h-33.746l-163.954-163.954c-4.050-4.073-9.489-6.235-15.019-6.235zM915.729-18.648c-5.12 0-10.172 1.82-14.131 5.37l-185.435 164.841h-225.917c-11.765 0-21.276 9.512-21.276 21.276v340.355c0 11.765 9.512 21.276 21.276 21.276h510.566c11.765 0 21.276-9.512 21.276-21.276v-340.378c0-11.765-9.512-21.276-21.276-21.276h-63.829v-148.912c0-8.397-4.892-15.952-12.538-19.41-2.776-1.252-5.757-1.866-8.715-1.866zM511.522 194.094h212.742c5.188 0 10.217-1.911 14.131-5.37l156.058-138.741v122.834c0 11.765 9.512 21.276 21.276 21.276h63.829v297.847h-468.036v-297.847z" />
<glyph unicode="&#xe925;" glyph-name="envelope-o" d="M937.483 125.622h-850.967c-46.922 0-85.106 38.184-85.106 85.106v510.566c0 46.922 38.161 85.106 85.106 85.106h850.967c46.922 0 85.106-38.161 85.106-85.106v-510.566c0-46.922-38.207-85.106-85.106-85.106zM86.517 763.847c-23.461 0-42.553-19.092-42.553-42.553v-510.566c0-23.484 19.092-42.553 42.553-42.553h850.967c23.484 0 42.553 19.069 42.553 42.553v510.566c0 23.461-19.069 42.553-42.553 42.553h-850.967zM512 359.64c-4.028 0-8.033 1.115-11.56 3.413l-361.654 234.018c-9.876 6.394-12.698 19.547-6.326 29.423 6.394 9.876 19.524 12.698 29.423 6.326l350.117-226.554 350.117 226.532c9.762 6.326 23.029 3.595 29.423-6.326 6.349-9.876 3.573-23.029-6.326-29.423l-361.654-233.995c-3.504-2.298-7.532-3.413-11.56-3.413zM150.369 274.557c-7.396 0-14.564 3.868-18.5 10.718-5.848 10.172-2.276 23.188 7.919 29.036l148.912 85.106c10.172 5.78 23.165 2.253 29.013-7.942 5.848-10.172 2.276-23.188-7.919-29.036l-148.89-85.106c-3.345-1.866-6.963-2.776-10.536-2.776zM873.654 274.557c-3.618 0-7.236 0.91-10.559 2.776l-148.912 85.106c-10.217 5.848-13.744 18.864-7.942 29.036 5.848 10.217 18.955 13.631 29.036 7.942l148.912-85.106c10.217-5.848 13.744-18.864 7.942-29.036-3.937-6.872-11.127-10.718-18.478-10.718z" />
<glyph unicode="&#xe926;" glyph-name="search-user" d="M407.324 145.351c-218.453 0-395.947 177.493-395.947 395.947s177.493 395.947 395.947 395.947 395.947-177.493 395.947-395.947-177.493-395.947-395.947-395.947zM407.324 894.009c-195.698 0-354.987-159.289-354.987-354.987 2.276-193.422 159.289-352.711 354.987-352.711s354.987 159.289 354.987 354.987c0 195.698-159.289 352.711-354.987 352.711zM992.142-64c-4.551 0-11.378 2.276-13.653 6.827l-318.578 318.578c-9.102 9.102-9.102 20.48 0 29.582s20.48 9.102 29.582 0l318.578-318.578c9.102-9.102 9.102-20.48 0-29.582-6.827-4.551-11.378-6.827-15.929-6.827zM229.831 288.711l-18.204 38.684c29.582 13.653 61.44 27.307 93.298 40.96v56.889c-15.929 11.378-38.684 38.684-40.96 100.124-18.204 11.378-27.307 36.409-27.307 61.44 0 13.653 2.276 27.307 9.102 36.409 2.276 4.551 6.827 9.102 11.378 11.378-13.653 29.582-29.582 72.818-9.102 97.849 9.102 11.378 22.756 15.929 43.236 15.929 22.756 45.511 86.471 61.44 138.809 61.44 56.889 0 129.707-20.48 145.636-77.369 9.102-38.684-4.551-75.093-13.653-97.849 4.551-2.276 6.827-6.827 9.102-11.378 6.827-9.102 9.102-22.756 9.102-36.409 0-25.031-9.102-50.062-27.307-61.44-2.276-61.44-25.031-88.747-40.96-100.124v-56.889c31.858-13.653 63.716-27.307 93.298-40.96l-18.204-38.684c-34.133 15.929-68.267 31.858-102.4 45.511-6.827 2.276-13.653 11.378-13.653 18.204v84.196c0 9.102 4.551 15.929 13.653 20.48v0c0 0 27.307 13.653 27.307 84.196 0 11.378 9.102 20.48 20.48 20.48 0 2.276 6.827 13.653 6.827 27.307 0 9.102-2.276 13.653-4.551 13.653-11.378 0-22.756 9.102-22.756 20.48 0 6.827 2.276 11.378 6.827 20.48 6.827 18.204 20.48 47.787 13.653 77.369-6.827 27.307-50.062 47.787-104.676 47.787s-97.849-20.48-104.676-47.787c-2.276-11.378-13.653-18.204-25.031-15.929-15.929 2.276-20.48 0-20.48 0-2.276-4.551-2.276-18.204 15.929-59.164 4.551-13.653 9.102-18.204 9.102-25.031 0-11.378-9.102-20.48-20.48-20.48-2.276 0-2.276 0-4.551-4.551-4.551-13.653 2.276-34.133 6.827-36.409 11.378 0 18.204-9.102 18.204-20.48 0-70.542 27.307-84.196 29.582-84.196 6.827-2.276 13.653-11.378 13.653-20.48v-84.196c0-9.102-4.551-15.929-13.653-18.204-34.133-11.378-70.542-27.307-102.4-43.236z" />
<glyph unicode="&#xe927;" glyph-name="pencil-file-text-o" d="M343.609 655.076h-188.871c-11.378 0-20.48 9.102-20.48 20.48s9.102 20.48 20.48 20.48h188.871c11.378 0 20.48-9.102 20.48-20.48s-9.102-20.48-20.48-20.48zM489.244 529.92h-334.507c-11.378 0-20.48 9.102-20.48 20.48s9.102 20.48 20.48 20.48h336.782c11.378 0 20.48-9.102 20.48-20.48s-11.378-20.48-22.756-20.48zM405.049 402.489h-250.311c-11.378 0-20.48 9.102-20.48 20.48s9.102 20.48 20.48 20.48h252.587c11.378 0 20.48-9.102 20.48-20.48s-9.102-20.48-22.756-20.48zM364.089 277.333h-209.351c-11.378 0-20.48 9.102-20.48 20.48s9.102 20.48 20.48 20.48h209.351c11.378 0 20.48-9.102 20.48-20.48s-9.102-20.48-20.48-20.48zM532.48-38.969c-4.551 0-11.378 2.276-15.929 6.827s-6.827 13.653-4.551 20.48l40.96 147.911c0 4.551 2.276 6.827 4.551 9.102l318.578 314.027c9.102 9.102 20.48 9.102 29.582 0l104.676-104.676c9.102-9.102 9.102-20.48 0-29.582l-316.302-316.302c-2.276-2.276-4.551-4.551-9.102-4.551l-147.911-40.96c0-2.276-2.276-2.276-4.551-2.276zM593.92 118.044l-29.582-104.676 104.676 29.582 295.822 295.822-75.093 75.093-295.822-295.822zM680.391 24.747v0 0zM791.507 345.319l28.963 28.963 104.588-104.588-28.963-28.963-104.588 104.588zM680.391 4.267c-4.551 0-11.378 2.276-15.929 6.827l-104.676 104.676c-9.102 9.102-9.102 20.48 0 29.582s20.48 9.102 29.582 0l104.676-104.676c9.102-9.102 9.102-20.48 0-29.582-2.276-4.551-9.102-6.827-13.653-6.827zM468.764 24.747h-441.458c-11.378 0-20.48 9.102-20.48 20.48v882.916c0 11.378 9.102 20.48 20.48 20.48h461.938c4.551 0 11.378-2.276 15.929-6.827l209.351-209.351c4.551-4.551 6.827-9.102 6.827-15.929v-275.342h-40.96v266.24l-197.973 197.973h-432.356v-841.956h420.978v-38.684zM700.871 698.311h-209.351c-11.378 0-20.48 9.102-20.48 20.48v209.351c0 11.378 9.102 20.48 20.48 20.48s20.48-9.102 20.48-20.48v-188.871h188.871c11.378 0 20.48-9.102 20.48-20.48s-9.102-20.48-20.48-20.48z" />
<glyph unicode="&#xe928;" glyph-name="poster" d="M304.924 133.973h-40.96v22.756c0 31.858 22.756 61.44 54.613 70.542l109.227 27.307v45.511h40.96v-63.716c0-9.102-6.827-18.204-15.929-20.48l-122.88-29.582c-13.653-4.551-22.756-15.929-22.756-29.582l-2.276-22.756zM719.076 133.973v22.756c0 15.929-13.653 27.307-25.031 29.582l-125.156 31.858c-9.102 2.276-15.929 11.378-15.929 20.48v61.44h40.96v-45.511l109.227-27.307c34.133-9.102 56.889-38.684 54.613-70.542v-20.48l-38.684-2.276zM512 256.853c-79.644 0-145.636 70.542-145.636 157.013s65.991 157.013 145.636 157.013 145.636-70.542 145.636-157.013c0-86.471-65.991-157.013-145.636-157.013zM512 529.92c-56.889 0-104.676-52.338-104.676-116.053s47.787-116.053 104.676-116.053 104.676 52.338 104.676 116.053c0 63.716-47.787 116.053-104.676 116.053zM596.196 402.489c-4.551 0-9.102 0-15.929 0-20.48 2.276-38.684 11.378-52.338 25.031-47.787-34.133-113.778-31.858-152.462-4.551l25.031 34.133c25.031-18.204 81.92-20.48 116.053 15.929 4.551 4.551 11.378 6.827 18.204 6.827s11.378-4.551 15.929-11.378c9.102-18.204 27.307-22.756 36.409-25.031 15.929-2.276 27.307 2.276 31.858 6.827l29.582-29.582c-11.378-11.378-29.582-18.204-52.338-18.204zM866.987-54.898h-709.973c-11.378 0-20.48 9.102-20.48 20.48v794.169c0 11.378 9.102 20.48 20.48 20.48h250.311v-40.96h-229.831v-750.933h666.738v750.933h-227.556v40.96h250.311c11.378 0 20.48-9.102 20.48-20.48v-791.893c0-13.653-9.102-22.756-20.48-22.756zM616.676 614.116h-209.351c-11.378 0-20.48 9.102-20.48 20.48v186.596c0 68.267 56.889 125.156 125.156 125.156s125.156-56.889 125.156-125.156v-186.596c0-11.378-9.102-20.48-20.48-20.48zM427.804 655.076h166.116v166.116c0 45.511-36.409 84.196-84.196 84.196s-84.196-36.409-84.196-84.196v-166.116zM157.013 154.453h709.973v-40.96h-709.973v40.96zM596.196 70.258h166.116v-40.96h-166.116v40.96zM512 780.231c-22.756 0-40.96 18.204-40.96 40.96s18.204 40.96 40.96 40.96 40.96-18.204 40.96-40.96-18.204-40.96-40.96-40.96zM512 821.191c0 0 0 0 0 0v0z" />
<glyph unicode="&#xe929;" glyph-name="student" d="M978.489-43.52h-942.080c-11.378 0-20.48 9.102-20.48 20.48v102.4c0 77.369 47.787 145.636 120.604 172.942l261.689 72.818c11.378 2.276 22.756-2.276 25.031-13.653s-2.276-22.756-13.653-25.031l-261.689-72.818c-54.613-20.48-91.022-75.093-91.022-134.258v-81.92h901.12v81.92c0 59.164-36.409 113.778-93.298 134.258l-259.413 70.542c-11.378 2.276-18.204 13.653-13.653 25.031 2.276 11.378 13.653 18.204 25.031 13.653l259.413-72.818c72.818-27.307 120.604-95.573 120.604-172.942v-102.4c2.276-9.102-6.827-18.204-18.204-18.204zM466.489 529.92c-11.378 0-20.48 9.102-20.48 20.48-4.551 0-9.102 0-15.929 0h-9.102c-4.551 0-11.378 0-15.929 0-2.276-9.102-9.102-18.204-20.48-18.204s-20.48 9.102-20.48 20.48c0 11.378 4.551 22.756 11.378 29.582 11.378 11.378 29.582 11.378 45.511 11.378h9.102c15.929 0 34.133 0 45.511-11.378 6.827-6.827 11.378-15.929 11.378-29.582s-9.102-22.756-20.48-22.756zM630.329 529.92c-11.378 0-20.48 9.102-20.48 20.48-4.551 0-9.102 0-15.929 0h-9.102c-4.551 0-11.378 0-15.929 0-2.276-9.102-9.102-18.204-20.48-18.204s-20.48 9.102-20.48 20.48c0 11.378 4.551 22.756 11.378 29.582 11.378 11.378 29.582 11.378 45.511 11.378h9.102c15.929 0 34.133 0 45.511-11.378 6.827-6.827 11.378-15.929 11.378-29.582s-9.102-22.756-20.48-22.756zM507.449 243.2c-63.716 0-211.627 79.644-225.28 207.076-27.307 9.102-47.787 38.684-47.787 79.644 0 38.684 18.204 68.267 45.511 77.369v86.471c0 11.378 9.102 20.48 20.48 20.48s20.48-9.102 20.48-20.48v-102.4c0-11.378-9.102-20.48-20.48-20.48-4.551 0-11.378 0-18.204-9.102-4.551-6.827-9.102-18.204-9.102-31.858s4.551-40.96 25.031-40.96c11.378 0 20.48-9.102 20.48-20.48 0-106.951 129.707-184.32 184.32-184.32 11.378 0 20.48-9.102 20.48-20.48 4.551-11.378-4.551-20.48-15.929-20.48zM507.449 243.2c-11.378 0-20.48 9.102-20.48 20.48s9.102 20.48 20.48 20.48c54.613 0 184.32 77.369 184.32 184.32 0 11.378 9.102 20.48 20.48 20.48 4.551 0 11.378 0 18.204 9.102 4.551 6.827 9.102 18.204 9.102 31.858s-4.551 40.96-25.031 40.96c-11.378 0-20.48 9.102-20.48 20.48v102.4c0 11.378 9.102 20.48 20.48 20.48s20.48-9.102 20.48-20.48v-86.471c27.307-9.102 45.511-40.96 45.511-77.369 0-38.684-18.204-68.267-47.787-79.644-13.653-127.431-161.564-207.076-225.28-207.076zM507.449 734.72c-2.276 0-2.276 0-4.551 0l-471.040 81.92c-9.102 2.276-15.929 9.102-15.929 20.48 0 9.102 6.827 18.204 15.929 20.48l471.040 81.92c2.276 0 4.551 0 6.827 0l471.040-81.92c9.102-2.276 15.929-9.102 15.929-20.48 0-9.102-6.827-18.204-15.929-20.48l-471.040-81.92c0 0-2.276 0-2.276 0zM157.013 837.12l350.436-61.44 350.436 61.44-350.436 61.44-350.436-61.44zM507.449 611.84c-150.187 0-216.178 63.716-218.453 68.267-4.551 4.551-6.827 9.102-6.827 13.653v97.849c0 11.378 9.102 20.48 20.48 20.48s20.48-9.102 20.48-20.48v-86.471c18.204-13.653 77.369-50.062 184.32-50.062s166.116 36.409 184.32 50.062v86.471c0 11.378 9.102 20.48 20.48 20.48s20.48-9.102 20.48-20.48v-97.849c0-4.551-2.276-11.378-6.827-13.653-2.276-4.551-68.267-68.267-218.453-68.267zM138.809 652.8c-11.378 0-20.48 9.102-20.48 20.48v145.636c0 11.378 9.102 20.48 20.48 20.48s20.48-9.102 20.48-20.48v-145.636c0-11.378-9.102-20.48-20.48-20.48zM200.249 366.080h-122.88c-6.827 0-11.378 2.276-15.929 6.827s-4.551 11.378-4.551 18.204l61.44 286.72c2.276 9.102 11.378 15.929 20.48 15.929s18.204-6.827 20.48-15.929l61.44-286.72c2.276-6.827 0-11.378-4.551-18.204-4.551-4.551-9.102-6.827-15.929-6.827zM102.4 407.040h72.818l-36.409 168.391-36.409-168.391zM507.449 38.4c-4.551 0-11.378 2.276-13.653 6.827l-213.902 213.902c-9.102 9.102-9.102 20.48 0 29.582s20.48 9.102 29.582 0l200.249-200.249 200.249 200.249c9.102 9.102 20.48 9.102 29.582 0s9.102-20.48 0-29.582l-216.178-216.178c-6.827-2.276-11.378-4.551-15.929-4.551z" />
<glyph unicode="&#xe92a;" glyph-name="certificate" d="M509.724 229.547h-480.142c-11.378 0-20.48 9.102-20.48 20.48v669.013c0 11.378 9.102 20.48 20.48 20.48h962.56c11.378 0 20.48-9.102 20.48-20.48v-354.987c0-11.378-9.102-20.48-20.48-20.48s-20.48 9.102-20.48 20.48v334.507h-921.6v-628.053h459.662c11.378 0 20.48-9.102 20.48-20.48s-9.102-20.48-20.48-20.48zM905.671-64c-4.551 0-9.102 2.276-13.653 4.551l-111.502 93.298-111.502-93.298c-6.827-4.551-15.929-6.827-22.756-2.276s-11.378 11.378-11.378 18.204v273.067h40.96v-227.556l91.022 75.093c6.827 6.827 18.204 6.827 27.307 0l91.022-75.093v227.556h40.96v-270.791c0-9.102-4.551-15.929-11.378-18.204-2.276-4.551-4.551-4.551-9.102-4.551zM780.516 270.507c-45.511 0-84.196 36.409-84.196 84.196s36.409 84.196 84.196 84.196c45.511 0 84.196-36.409 84.196-84.196s-36.409-84.196-84.196-84.196zM780.516 395.662c-22.756 0-40.96-18.204-40.96-40.96s18.204-40.96 40.96-40.96 40.96 18.204 40.96 40.96-18.204 40.96-40.96 40.96zM780.516 145.351c-38.684 0-72.818 20.48-91.022 52.338 0 0 0 0 0 0-36.409 0-70.542 20.48-91.022 52.338-18.204 31.858-18.204 72.818 0 104.676-18.204 31.858-18.204 70.542 0 104.676 18.204 31.858 54.613 54.613 91.022 52.338 18.204 31.858 52.338 52.338 91.022 52.338s72.818-20.48 91.022-52.338c0 0 0 0 0 0 36.409 0 70.542-20.48 91.022-52.338 18.204-31.858 18.204-72.818 0-104.676 18.204-31.858 18.204-70.542 0-104.676-18.204-31.858-52.338-52.338-91.022-52.338 0 0 0 0 0 0-18.204-31.858-52.338-52.338-91.022-52.338zM703.147 240.924c9.102 0 15.929-4.551 20.48-13.653 9.102-25.031 31.858-40.96 59.164-40.96 25.031 0 47.787 15.929 59.164 40.96 4.551 9.102 13.653 13.653 22.756 13.653 25.031-4.551 50.062 6.827 63.716 29.582s11.378 50.062-4.551 70.542c-6.827 6.827-6.827 18.204 0 27.307 15.929 20.48 18.204 47.787 4.551 70.542s-38.684 34.133-63.716 29.582c-9.102-2.276-18.204 4.551-22.756 13.653-9.102 25.031-31.858 40.96-59.164 40.96-25.031 0-47.787-15.929-59.164-40.96-4.551-9.102-13.653-13.653-22.756-13.653-25.031 4.551-50.062-6.827-63.716-29.582s-11.378-50.062 4.551-70.542c6.827-6.827 6.827-18.204 0-27.307-15.929-20.48-18.204-47.787-4.551-70.542s38.684-34.133 63.716-29.582c0 0 2.276 0 2.276 0zM509.724 311.467h-273.067c-11.378 0-20.48 9.102-20.48 20.48 0 56.889-47.787 104.676-104.676 104.676-11.378 2.276-20.48 11.378-20.48 22.756v250.311c0 11.378 9.102 20.48 20.48 20.48 56.889 0 104.676 47.787 104.676 104.676 0 11.378 9.102 20.48 20.48 20.48h543.858c11.378 0 20.48-9.102 20.48-20.48 0-56.889 47.787-104.676 104.676-104.676 11.378 0 20.48-9.102 20.48-20.48v-104.676c0-11.378-9.102-20.48-20.48-20.48s-20.48 9.102-20.48 20.48v84.196c-63.716 9.102-113.778 59.164-122.88 122.88h-505.173c-9.102-63.716-59.164-113.778-122.88-122.88v-211.627c63.716-9.102 113.778-59.164 122.88-122.88h252.587c11.378 0 20.48-9.102 20.48-20.48s-9.102-22.756-20.48-22.756z" />
<glyph unicode="&#xe92b;" glyph-name="refresh" d="M158.31 382.373c-0.41 0-0.842 0-1.252 0.023-5.939 0.387-11.355 3.527-14.655 8.488l-132.619 198.952c-5.871 8.784-3.504 20.662 5.302 26.51 8.829 5.871 20.685 3.504 26.51-5.302l118.784-178.176 138.286 158.037c6.963 7.987 19.046 8.738 26.988 1.798 7.964-6.963 8.761-19.046 1.798-26.988l-154.738-176.856c-3.641-4.142-8.897-6.485-14.404-6.485zM578.014 28.683c-170.849 0-325.928 98.554-398.313 254.589-4.437 9.58-0.273 20.935 9.307 25.395 9.58 4.483 20.912 0.273 25.395-9.307 68.153-146.978 217.042-238.638 378.63-232.129 220.865 8.101 393.99 194.423 385.866 415.334-8.124 220.865-193.991 394.422-415.38 385.866-112.754-4.164-219.409-55.706-292.614-141.426-73.956-86.608-106.724-200.408-92.228-320.421 1.274-10.49-6.19-20.002-16.703-21.276-10.331-1.092-20.025 6.19-21.276 16.703-15.77 130.753 20.116 254.999 101.126 349.844 80.145 93.844 196.881 150.255 320.307 154.806 241.96 8.67 446.1-180.747 455.020-422.707 8.875-242.005-180.747-446.077-422.707-454.975-5.484-0.182-10.991-0.296-16.43-0.296z" />
<glyph unicode="&#xe92c;" glyph-name="mouse-pointer-o" d="M718.575-46.524c-6.758 0-13.358 3.322-17.271 9.444l-226.213 353.098-182.158-116.736c-5.939-3.8-13.358-4.278-19.706-1.32s-10.763 8.988-11.651 15.952l-90.408 705.536c-1.001 7.828 2.594 15.565 9.262 19.843 6.645 4.255 15.201 4.324 21.891 0.114l603.159-376.991c5.962-3.732 9.603-10.24 9.648-17.249 0.023-7.009-3.527-13.562-9.444-17.362l-182.135-116.713 226.213-353.098c2.935-4.574 3.937-10.103 2.753-15.428-1.161-5.302-4.369-9.944-8.966-12.857l-113.96-73c-3.413-2.207-7.236-3.231-11.014-3.231zM481.303 364.783c1.456 0 2.935-0.159 4.369-0.478 5.302-1.161 9.944-4.369 12.857-8.966l226.213-353.098 79.462 50.904-226.213 353.098c-6.121 9.512-3.322 22.187 6.19 28.285l172.123 110.319-539.034 336.919 80.828-630.534 172.146 110.319c3.322 2.116 7.168 3.231 11.059 3.231z" />
<glyph unicode="&#xe92d;" glyph-name="commenting-o" d="M16.498 160.097v454.906c0 109.181 94.618 203.844 203.799 203.844h582.315c109.204 0 203.822-94.64 203.822-203.844v-232.903c0-109.181-94.618-203.822-203.822-203.822h-545.929l-94.618-80.031c-18.204-14.586-36.386-21.868-58.254-21.868-47.309 0-87.313 40.073-87.313 83.718zM216.656 760.593c-80.077 0-145.567-65.513-145.567-145.59v-454.929c0-29.104 29.104-40.027 47.309-21.845l105.563 94.618c7.259 7.282 10.9 7.282 18.204 7.282h560.447c80.077 0 145.567 65.49 145.567 145.567v232.971c0 80.077-65.513 145.567-145.567 145.567 0 0-582.337 0-585.956-3.641zM707.994 458.513c-3.664 7.305-10.9 18.204-10.9 29.127 0 10.9 3.595 21.845 10.9 29.104 18.204 18.204 47.286 18.204 65.49 0 3.641-7.236 10.9-18.182 10.9-29.104s-3.641-21.823-10.9-29.127c-7.282-3.618-18.204-10.9-29.082-10.9-14.609 0-25.509 7.282-36.409 10.9zM475.045 458.513c-3.641 7.305-10.9 18.204-10.9 29.127 0 10.9 3.618 21.845 10.9 29.104 18.204 18.204 47.286 18.204 65.49 0 3.664-7.236 10.923-18.182 10.923-29.104s-3.664-21.823-10.923-29.127c-7.259-3.618-18.204-10.9-29.127-10.9-14.518 0-25.463 7.282-36.363 10.9zM242.142 458.513c-3.664 7.305-10.945 18.204-10.945 29.127 0 10.9 3.664 21.845 10.945 29.104 18.204 18.204 47.309 18.204 65.49 0 3.641-7.236 10.9-18.182 10.9-29.104s-3.641-21.823-10.9-29.127c-7.282-3.618-18.204-10.9-29.104-10.9-14.564 0-25.463 7.282-36.386 10.9z" />
<glyph unicode="&#xe92e;" glyph-name="th" d="M761.628 947.78v-250.197h250.152v250.197h-250.152zM761.628-52.941h250.152v250.152h-250.152v-250.152zM761.628 322.321h250.152v250.152h-250.152v-250.152zM386.321 697.583h250.22v250.197h-250.22v-250.197zM386.321-52.941h250.22v250.152h-250.22v-250.152zM386.321 322.321h250.22v250.152h-250.22v-250.152zM11.059 697.583h250.175v250.197h-250.175v-250.197zM11.059-52.941h250.175v250.152h-250.175v-250.152zM11.059 322.321h250.175v250.152h-250.175v-250.152z" />
<glyph unicode="&#xe92f;" glyph-name="info-circle-o" d="M513.889-54.761c-277.231 0-502.738 225.553-502.738 502.761s225.508 502.761 502.738 502.761 502.761-225.553 502.761-502.761-225.53-502.761-502.761-502.761zM513.889 907.048c-253.11 0-459.025-205.915-459.025-459.048s205.938-459.048 459.048-459.048 459.025 205.915 459.025 459.048-205.938 459.048-459.048 459.048zM601.611 277.333h-55.478v221.935c0 11.31-15.223 28.376-26.556 28.376h-82.034c-11.332 0-20.503-11.423-20.503-22.756s9.17-22.756 20.503-22.756h63.078v-204.8h-63.078c-11.332 0-20.503-11.423-20.503-22.756s9.17-22.756 20.503-22.756h164.068c11.332 0 20.503 11.423 20.503 22.756s-9.17 22.756-20.503 22.756zM539.42 622.308c0-22.647-18.359-41.006-41.006-41.006s-41.006 18.359-41.006 41.006c0 22.647 18.359 41.006 41.006 41.006s41.006-18.359 41.006-41.006z" />
<glyph unicode="&#xe930;" glyph-name="open-book" d="M994.964 908.322c-204.686 0-415.175-44.737-482.258-122.152-67.083 77.414-277.595 122.152-482.236 122.152-12.129 0-21.936-9.808-21.936-21.936v-723.331c0-12.151 9.808-21.959 21.936-21.959 259.231 0 460.322-70.679 460.322-131.482 0-12.106 9.808-21.936 21.914-21.936s21.914 9.83 21.914 21.936c0 60.803 201.068 131.482 460.345 131.482 12.060 0 21.936 9.808 21.936 21.959v723.331c0 12.129-9.876 21.936-21.936 21.936zM52.361 184.786v679.504c248.582-3.823 438.409-72.226 438.409-131.345v-650.081c-80.213 62.396-259.322 99.146-438.409 101.922zM973.028 184.786c-179.086-2.776-358.195-39.504-438.431-101.922v650.081c0 59.119 189.827 127.522 438.431 131.345v-679.504z" />
<glyph unicode="&#xe931;" glyph-name="calendar" d="M938.688 864h-138.688v64c0 17.696-14.304 32-32 32s-32-14.304-32-32v-64h-192v64c0 17.696-14.336 32-32 32s-32-14.304-32-32v-64h-192v64c0 17.696-14.336 32-32 32s-32-14.304-32-32v-64h-138.656c-47.136 0-85.344-38.176-85.344-85.312v-757.344c0-47.136 38.208-85.344 85.344-85.344h853.344c47.136 0 85.312 38.208 85.312 85.344v757.344c0 47.136-38.176 85.312-85.312 85.312zM960 21.344c0-11.776-9.568-21.344-21.312-21.344h-853.344c-11.776 0-21.344 9.568-21.344 21.344v757.344c0 11.744 9.568 21.312 21.344 21.312h138.656v-64c0-17.696 14.336-32 32-32s32 14.304 32 32v64h192v-64c0-17.696 14.336-32 32-32s32 14.304 32 32v64h192v-64c0-17.696 14.304-32 32-32s32 14.304 32 32v64h138.688c11.744 0 21.312-9.568 21.312-21.312v-757.344zM224 576h128v-96h-128v96zM224 416h128v-96h-128v96zM224 256h128v-96h-128v96zM448 256h128v-96h-128v96zM448 416h128v-96h-128v96zM448 576h128v-96h-128v96zM672 256h128v-96h-128v96zM672 416h128v-96h-128v96zM672 576h128v-96h-128v96z" />
<glyph unicode="&#xe932;" glyph-name="withdrawal" d="M500.622 520.818c0 2.276-2.276 2.276-2.276 4.551 0 0 0 0 0 0-2.276 4.551-4.551 9.102-11.378 11.378l11.378 13.653c2.276 4.551 2.276 11.378-2.276 15.929-4.551 2.276-11.378 2.276-15.929-2.276l-20.48-22.756c-25.031-2.276-52.338-15.929-70.542-34.133-2.276-2.276-6.827-6.827-9.102-9.102-18.204-20.48-13.653-36.409-11.378-43.236 2.276-4.551 11.378-15.929 31.858-15.929 6.827 0 11.378-2.276 11.378-4.551 0 0 0-6.827-9.102-18.204-15.929-20.48-50.062-36.409-70.542-36.409-2.276 0-4.551 0-6.827 2.276-2.276 0-4.551 2.276-4.551 2.276s0 6.827 9.102 18.204c2.276 4.551 2.276 11.378-2.276 15.929-2.276 0-4.551 2.276-6.827 2.276 0 0 0 0 0 0-2.276 0-4.551-2.276-6.827-4.551-18.204-20.48-13.653-36.409-11.378-43.236 2.276-2.276 4.551-6.827 11.378-11.378l-13.653-15.929c-2.276-4.551-2.276-11.378 2.276-15.929 2.276-2.276 4.551-2.276 6.827-2.276s6.827 2.276 9.102 4.551l18.204 22.756c29.582 2.276 63.716 20.48 81.92 40.96 13.653 15.929 13.653 27.307 13.653 36.409 0 4.551 0 9.102-2.276 11.378-2.276 6.827-9.102 15.929-29.582 15.929-6.827 0-11.378 2.276-13.653 4.551 0 2.276 2.276 6.827 9.102 13.653 15.929 20.48 50.062 36.409 70.542 36.409 6.827 0 11.378-2.276 11.378-4.551s0-6.827-9.102-18.204c-2.276-4.551-2.276-11.378 2.276-15.929 4.551-2.276 11.378-2.276 15.929 2.276 20.48 20.48 15.929 36.409 13.653 43.236zM1012.622 741.547h-1001.244c-6.827 0-11.378-4.551-11.378-11.378v-259.413c0-6.827 4.551-11.378 11.378-11.378h191.147l-200.249-200.249c-2.276-2.276-4.551-6.827-2.276-11.378s6.827-6.827 11.378-6.827h434.631c4.551 0 6.827 0 9.102 2.276l391.396 391.396c2.276 2.276 4.551 6.827 2.276 11.378s-6.827 6.827-11.378 6.827h-434.631c-4.551 0-6.827 0-9.102-2.276l-168.391-168.391h-202.524v236.658h978.489v-236.658h-200.249l45.511 45.511c4.551 4.551 4.551 11.378 0 15.929s-11.378 4.551-15.929 0l-366.364-366.364h-452.836c-6.827 0-11.378-4.551-11.378-11.378s4.551-11.378 11.378-11.378h457.387c2.276 0 4.551 0 6.827 2.276l302.649 302.649h234.382c6.827 0 11.378 4.551 11.378 9.102v261.689c0 6.827-4.551 11.378-11.378 11.378zM38.684 263.68l368.64 368.64h402.773l-368.64-368.64h-402.773z" />
<glyph unicode="&#xe933;" glyph-name="exclamation-circle" d="M512 960c-282.169 0-512-227.556-512-512s227.556-512 512-512 512 227.556 512 512c0 284.444-227.556 512-512 512zM512 120.32c-38.684 0-65.991 29.582-65.991 70.542s27.307 70.542 65.991 70.542c40.96 0 65.991-29.582 65.991-70.542 0-38.684-25.031-70.542-65.991-70.542zM539.307 393.387c-9.102-34.133-40.96-34.133-52.338 0-11.378 40.96-54.613 195.698-54.613 295.822 0 131.982 166.116 134.258 166.116 0-4.551-102.4-50.062-261.689-59.164-295.822z" />
<glyph unicode="&#xe934;" glyph-name="info-circle" d="M512 960c-282.169 0-512-229.831-512-512s229.831-512 512-512 512 229.831 512 512-229.831 512-512 512zM509.724 748.373c27.307 0 47.787-20.48 47.787-47.787s-20.48-47.787-47.787-47.787-47.787 20.48-47.787 47.787c2.276 27.307 22.756 47.787 47.787 47.787zM589.369 156.729h-134.258c-20.48 0-36.409 15.929-36.409 36.409s15.929 36.409 36.409 36.409h29.582v307.2h-29.582c-20.48 0-36.409 15.929-36.409 36.409s15.929 36.409 36.409 36.409h68.267c20.48 0 36.409-15.929 36.409-36.409v-345.884h29.582c20.48 0 36.409-15.929 36.409-36.409-2.276-18.204-18.204-34.133-36.409-34.133z" />
<glyph unicode="&#xe935;" glyph-name="tool" d="M1017.173 884.907l-63.716 65.991c-6.827 6.827-15.929 6.827-27.307 4.551l-152.462-109.227c0 0-2.276-2.276-2.276-4.551s-2.276-2.276-2.276-2.276l-2.276-2.276v-4.551c0-4.551 0-13.653 6.827-18.204l38.684-38.684-423.253-425.529-75.093 75.093c-6.827 6.827-22.756 6.827-29.582 0-4.551-4.551-6.827-9.102-6.827-15.929s2.276-11.378 6.827-15.929l29.582-29.582-266.24-263.964c-15.929-15.929-25.031-36.409-25.031-59.164s9.102-43.236 25.031-59.164c13.653-15.929 36.409-25.031 59.164-25.031s43.236 9.102 59.164 25.031l266.24 261.689 29.582-29.582c4.551-2.276 9.102-6.827 15.929-6.827s11.378 4.551 15.929 6.827c4.551 4.551 6.827 9.102 6.827 15.929s-2.276 11.378-6.827 15.929l-75.093 75.093 425.529 423.253 34.133-34.133c4.551-2.276 9.102-6.827 15.929-6.827s11.378 4.551 15.929 6.827l111.502 145.636c4.551 9.102 2.276 20.48-4.551 29.582zM402.773 275.058l-263.964-263.964c-9.102-9.102-20.48-13.653-29.582-13.653s-20.48 2.276-29.582 13.653c-9.102 9.102-13.653 20.48-13.653 29.582s2.276 20.48 13.653 29.582l261.689 263.964 61.44-59.164zM973.938 868.978l-81.92-111.502-68.267 68.267 113.778 79.644 36.409-36.409zM252.587 579.982l154.738-154.738 29.582 29.582-161.564 163.84c-9.102 9.102-18.204 6.827-25.031 4.551-59.164-25.031-120.604-11.378-163.84 31.858-34.133 34.133-47.787 81.92-38.684 129.707l61.44-56.889c2.276-4.551 9.102-9.102 13.653-9.102h84.196c11.378 0 22.756 11.378 22.756 22.756v88.747c0 4.551-4.551 11.378-6.827 13.653l-56.889 63.716c45.511 9.102 93.298-6.827 127.431-40.96 43.236-43.236 54.613-106.951 31.858-161.564-4.551-9.102 0-18.204 2.276-22.756l166.116-166.116 29.582 29.582-154.738 154.738c22.756 68.267 6.827 143.36-45.511 195.698-29.582 29.582-68.267 50.062-106.951 56.889-20.48 2.276-38.684 2.276-59.164 0h-2.276c-2.276 0-4.551-2.276-9.102-2.276-15.929-9.102-34.133-13.653-38.684-27.307 0-4.551 0-9.102 6.827-18.204 2.276-2.276 45.511-50.062 72.818-81.92v-54.613h-54.613l-81.92 72.818c-4.551 4.551-11.378 6.827-18.204 6.827-6.827-2.276-13.653-6.827-15.929-13.653-29.582-72.818-13.653-154.738 40.96-207.076 52.338-52.338 127.431-70.542 195.698-47.787zM762.311 313.742l-154.738 154.738-29.582-29.582 163.84-163.84c9.102-9.102 18.204-6.827 25.031-4.551 54.613 22.756 120.604 11.378 163.84-31.858 36.409-36.409 50.062-84.196 40.96-131.982l-65.991 61.44c-4.551 2.276-9.102 6.827-15.929 6.827h-84.196c-11.378 0-22.756-11.378-22.756-22.756v-84.196c0-6.827 4.551-11.378 6.827-13.653l61.44-63.716c-45.511-9.102-95.573 6.827-129.707 40.96-43.236 43.236-54.613 106.951-31.858 161.564 4.551 9.102 0 18.204-2.276 22.756l-163.84 166.116-36.409-36.409 154.738-154.738c-22.756-68.267-6.827-143.36 45.511-195.698 36.409-36.409 84.196-56.889 136.533-56.889 27.307 0 52.338 4.551 75.093 15.929 6.827 2.276 9.102 6.827 13.653 13.653v4.551c0 4.551 0 13.653-6.827 18.204l-81.92 81.92v54.613h54.613l84.196-77.369c4.551-4.551 11.378-6.827 18.204-4.551 9.102 0 11.378 9.102 13.653 13.653 29.582 72.818 13.653 154.738-40.96 209.351-45.511 50.062-122.88 68.267-191.147 45.511z" />
<glyph unicode="&#xe936;" glyph-name="arrow-right-circle-o" d="M512 960c-284.444 0-512-229.831-512-512 0-284.444 229.831-512 512-512s512 229.831 512 512c0 284.444-229.831 512-512 512zM512 11.093c-238.933 0-436.907 197.973-436.907 436.907s197.973 436.907 436.907 436.907 436.907-197.973 436.907-436.907-197.973-436.907-436.907-436.907zM354.987 716.516l268.516-268.516-268.516-268.516 52.338-52.338 320.853 320.853-320.853 320.853z" />
<glyph unicode="&#xe937;" glyph-name="cog-o" d="M1003.52 534.471h-120.604c-6.827 34.133-18.204 68.267-34.133 100.124l86.471 86.471c9.102 9.102 9.102 22.756 0 29.582l-120.604 120.604c-9.102 9.102-22.756 9.102-29.582 0l-86.471-86.471c-31.858 13.653-65.991 25.031-100.124 34.133v120.604c0 11.378-9.102 20.48-20.48 20.48h-127.431c-11.378 0-20.48-9.102-20.48-20.48v-120.604c-34.133-6.827-68.267-18.204-100.124-34.133l-86.471 86.471c-9.102 9.102-22.756 9.102-29.582 0l-125.156-120.604c-9.102-9.102-9.102-22.756 0-29.582l86.471-86.471c-13.653-31.858-25.031-65.991-34.133-100.124h-120.604c-11.378 0-20.48-9.102-20.48-20.48v-127.431c0-11.378 9.102-20.48 20.48-20.48h120.604c6.827-34.133 18.204-68.267 34.133-100.124l-86.471-86.471c-9.102-9.102-9.102-22.756 0-29.582l120.604-120.604c9.102-6.827 20.48-6.827 29.582 0l86.471 86.471c31.858-13.653 65.991-25.031 100.124-34.133v-120.604c0-11.378 9.102-20.48 20.48-20.48h127.431c0 0 0 0 0 0 11.378 0 20.48 9.102 20.48 22.756v120.604c34.133 6.827 68.267 18.204 100.124 34.133l86.471-86.471c9.102-9.102 22.756-9.102 29.582 0l120.604 120.604c9.102 9.102 9.102 22.756 0 29.582l-86.471 86.471c13.653 31.858 25.031 65.991 34.133 100.124h120.604c11.378 0 20.48 9.102 20.48 20.48v127.431c4.551 6.827-4.551 18.204-15.929 18.204zM980.764 404.764h-116.053c-9.102 0-18.204-6.827-20.48-15.929-9.102-40.96-22.756-81.92-40.96-118.329-4.551-9.102-4.551-18.204 2.276-27.307l81.92-81.92-88.747-88.747-84.196 81.92c-6.827 6.827-18.204 9.102-27.307 2.276-38.684-18.204-77.369-31.858-118.329-40.96-9.102-2.276-15.929-11.378-15.929-20.48v-118.329h-86.471l2.276 118.329c0 9.102-6.827 18.204-15.929 20.48-40.96 9.102-81.92 22.756-118.329 40.96-9.102 4.551-18.204 4.551-27.307-2.276l-81.92-81.92-88.747 88.747 81.92 84.196c6.827 6.827 9.102 18.204 2.276 27.307-18.204 38.684-31.858 77.369-40.96 118.329-2.276 9.102-11.378 15.929-20.48 15.929h-116.053v86.471h116.053c9.102 0 18.204 6.827 20.48 15.929 9.102 40.96 22.756 81.92 40.96 120.604 4.551 9.102 4.551 18.204-2.276 27.307l-84.196 77.369 88.747 88.747 84.196-81.92c6.827-6.827 18.204-9.102 27.307-2.276 38.684 18.204 77.369 31.858 118.329 40.96 9.102 2.276 15.929 11.378 15.929 20.48v116.053h84.196v-116.053c0-9.102 6.827-18.204 15.929-20.48 40.96-9.102 81.92-22.756 120.604-40.96 9.102-4.551 18.204-4.551 27.307 2.276l81.92 81.92 88.747-91.022-81.92-81.92c-6.827-6.827-9.102-18.204-2.276-27.307 18.204-38.684 31.858-77.369 40.96-118.329 2.276-9.102 11.378-15.929 20.48-15.929h118.329v-84.196zM512 661.902c-118.329 0-213.902-95.573-213.902-213.902s95.573-213.902 213.902-213.902c118.329 0 213.902 95.573 213.902 213.902s-95.573 213.902-213.902 213.902zM512 277.333c-93.298 0-170.667 77.369-170.667 170.667s77.369 170.667 170.667 170.667c93.298 0 170.667-77.369 170.667-170.667s-77.369-170.667-170.667-170.667z" />
<glyph unicode="&#xe938;" glyph-name="user-circle-o" d="M512 960c-282.169 0-512-229.831-512-512s229.831-512 512-512c282.169 0 512 229.831 512 512s-229.831 512-512 512zM512-20.764c-116.053 0-227.556 43.236-314.027 120.604 54.613 27.307 111.502 50.062 170.667 68.267l65.991 22.756c9.102 2.276 13.653 11.378 13.653 20.48v109.227c0 9.102-6.827 15.929-13.653 20.48-2.276 0-47.787 18.204-47.787 106.951 0 11.378-9.102 20.48-20.48 20.48 0 0 0 0 0 0-4.551 6.827-6.827 13.653-6.827 22.756 0 6.827 2.276 15.929 4.551 20.48 11.378 0 20.48 9.102 20.48 20.48 0 0 0 0 0 0 0 6.827-2.276 15.929-4.551 22.756-6.827 20.48-22.756 84.196-6.827 102.4 6.827 6.827 20.48 4.551 29.582 2.276 11.378-2.276 22.756 4.551 25.031 15.929 6.827 27.307 56.889 47.787 118.329 47.787s111.502-20.48 118.329-47.787c9.102-38.684-6.827-93.298-15.929-120.604-4.551-6.827-6.827-15.929-9.102-25.031 0-11.378 9.102-20.48 20.48-20.48 0 0 0 0 0 0 4.551-6.827 6.827-13.653 6.827-22.756 0-6.827-2.276-15.929-4.551-20.48-11.378 0-20.48-9.102-20.48-20.48 0-88.747-47.787-106.951-50.062-106.951-9.102-2.276-13.653-11.378-13.653-20.48v-106.951c0-9.102 4.551-15.929 13.653-20.48l68.267-25.031c56.889-18.204 113.778-43.236 168.391-68.267-88.747-77.369-200.249-120.604-316.302-118.329zM857.884 131.698c-59.164 31.858-120.604 56.889-184.32 77.369l-54.613 20.48v77.369c20.48 13.653 59.164 45.511 63.716 125.156 18.204 13.653 27.307 36.409 25.031 59.164 0 20.48-6.827 40.96-22.756 54.613 11.378 31.858 29.582 93.298 15.929 141.084-13.653 59.164-95.573 79.644-159.289 79.644-56.889 0-127.431-15.929-152.462-61.44-18.204 2.276-38.684-4.551-52.338-18.204-31.858-34.133-13.653-102.4-2.276-141.084-15.929-13.653-25.031-34.133-22.756-54.613-2.276-22.756 9.102-45.511 27.307-59.164 4.551-77.369 43.236-111.502 63.716-125.156v-77.369l-50.062-20.48c-65.991-20.48-127.431-47.787-188.871-79.644-172.942 193.422-159.289 489.244 34.133 662.187s489.244 159.289 662.187-34.133c77.369-86.471 120.604-197.973 120.604-311.751 0-116.053-43.236-227.556-122.88-314.027z" />
<glyph unicode="&#xe939;" glyph-name="wechat" d="M464.213 500.338c65.991 61.44 154.738 97.849 245.76 97.849-4.551 54.613-25.031 106.951-59.164 150.187-100.124 122.88-263.964 170.667-414.151 120.604-111.502-36.409-193.422-106.951-225.28-220.729-38.684-122.88 9.102-243.484 125.156-323.129 15.929-6.827 22.756-27.307 13.653-43.236-6.827-27.307-11.378-54.613-18.204-84.196 36.409 22.756 68.267 45.511 100.124 63.716 11.378 4.551 22.756 6.827 36.409 6.827 34.133-2.276 68.267-9.102 104.676-13.653-11.378 91.022 22.756 182.044 91.022 245.76zM500.622 682.382v0c2.276 0 4.551 0 6.827 0 22.756-2.276 40.96-22.756 38.684-45.511s-22.756-40.96-45.511-38.684c-22.756 0-43.236 18.204-43.236 40.96s18.204 40.96 43.236 43.236zM225.28 595.911c0 0 0 0 0 0-25.031 0-43.236 20.48-40.96 43.236 0 0 0 0 0 0 0 22.756 20.48 40.96 45.511 40.96 22.756 0 43.236-20.48 43.236-43.236-2.276-22.756-22.756-40.96-47.787-40.96zM964.836 448c-95.573 122.88-293.547 152.462-427.804 63.716-150.187-97.849-170.667-284.444-38.684-405.049 65.991-61.44 157.013-91.022 245.76-79.644 31.858 2.276 61.44 20.48 91.022 15.929 29.582-2.276 56.889-22.756 86.471-36.409-2.276 6.827-2.276 15.929-6.827 22.756-18.204 34.133-9.102 54.613 20.48 81.92 102.4 86.471 113.778 236.658 29.582 336.782zM577.991 338.773c-2.276 0-4.551 0-6.827 0-20.48 2.276-34.133 18.204-31.858 38.684s18.204 34.133 38.684 31.858c2.276 0 4.551 0 6.827 0 20.48-2.276 34.133-18.204 31.858-38.684s-18.204-34.133-38.684-31.858zM798.72 338.773c-18.204 0-34.133 15.929-34.133 36.409 0 18.204 15.929 34.133 34.133 34.133 0 0 0 0 0 0 18.204 0 34.133-15.929 34.133-36.409s-15.929-34.133-34.133-34.133z" />
<glyph unicode="&#xe93a;" glyph-name="target" d="M512 736.996c-11.378 0-22.756 9.102-22.756 22.756v177.493c0 11.378 9.102 22.756 22.756 22.756s22.756-9.102 22.756-22.756v-177.493c0-11.378-11.378-22.756-22.756-22.756zM22.756 425.244c-11.378 0-22.756 9.102-22.756 22.756 0 11.378 9.102 22.756 22.756 22.756h177.493c11.378 0 22.756-9.102 22.756-22.756 0-11.378-9.102-22.756-22.756-22.756h-177.493zM512-64c-11.378 0-22.756 9.102-22.756 22.756v177.493c0 11.378 9.102 22.756 22.756 22.756s22.756-9.102 22.756-22.756v-177.493c0-13.653-11.378-22.756-22.756-22.756zM823.751 382.009c-36.409 0-65.991 29.582-65.991 65.991s29.582 65.991 65.991 65.991h104.676c-29.582 179.769-170.667 320.853-350.436 350.436v-104.676c0-36.409-29.582-65.991-65.991-65.991s-65.991 29.582-65.991 65.991v104.676c-179.769-27.307-323.129-170.667-350.436-350.436h104.676c36.409 0 65.991-29.582 65.991-65.991s-29.582-65.991-65.991-65.991h-104.676c29.582-179.769 170.667-320.853 350.436-350.436v104.676c0 36.409 29.582 65.991 65.991 65.991s65.991-29.582 65.991-65.991v-104.676c179.769 29.582 320.853 170.667 350.436 350.436h-104.676zM691.769 247.751c0 0-2.276 0 0 0h-357.262c-11.378 0-22.756 9.102-22.756 22.756 0 84.196 52.338 157.013 127.431 186.596-22.756 20.48-36.409 47.787-36.409 81.92 0 61.44 50.062 109.227 109.227 109.227s109.227-50.062 109.227-109.227c0-31.858-13.653-61.44-36.409-81.92 70.542-29.582 122.88-97.849 125.156-179.769 0-2.276 0-4.551 0-6.827 2.276-13.653-6.827-22.756-18.204-22.756zM1001.244 425.244h-177.493c-11.378 0-22.756 9.102-22.756 22.756 0 11.378 9.102 22.756 22.756 22.756v0h177.493c11.378 0 22.756-9.102 22.756-22.756 0-11.378-9.102-22.756-22.756-22.756z" />
<glyph unicode="&#xe93b;" glyph-name="picture-o" d="M1003.52 957.724c-11.378 0-20.48-9.102-20.48-20.48v-960.284h-942.080v942.080h962.56c11.378 0 20.48 9.102 20.48 20.48s-9.102 20.48-20.48 18.204l-983.040 2.276c-11.378 0-20.48-9.102-20.48-20.48v-983.040c0-11.378 9.102-20.48 20.48-20.48h983.040c11.378 0 20.48 9.102 20.48 20.48v980.764c0 11.378-9.102 20.48-20.48 20.48v0zM136.533 843.947c-11.378 0-20.48-9.102-20.48-20.48v-603.022c0-11.378 9.102-20.48 20.48-20.48h750.933c11.378 0 20.48 9.102 20.48 20.48v603.022c0 11.378-9.102 20.48-20.48 20.48h-750.933zM157.013 802.987h709.973v-530.204l-218.453 218.453c-9.102 9.102-20.48 9.102-29.582 0l-59.164-59.164-106.951 106.951c-9.102 9.102-20.48 9.102-29.582 0l-207.076-207.076c-9.102-9.102-9.102-20.48 0-29.582s20.48-9.102 29.582 0l191.147 191.147 106.951-106.951c9.102-9.102 20.48-9.102 29.582 0l59.164 59.164 204.8-204.8h-682.667v562.062z" />
<glyph unicode="&#xe93c;" glyph-name="bin" d="M159.289-0.284c0-34.133 29.582-63.716 63.716-63.716h575.716c34.133 0 63.716 29.582 63.716 63.716v639.431h-703.147v-639.431zM671.289 511.716h63.716v-448.284h-63.716v448.284zM543.858 511.716h63.716v-448.284h-63.716v448.284zM416.427 511.716h63.716v-448.284h-63.716v448.284zM288.996 511.716h63.716v-448.284h-63.716v448.284zM880.64 832.569h-207.076v79.644c0 27.307-20.48 47.787-47.787 47.787h-223.004c-27.307 0-47.787-20.48-47.787-47.787v-79.644h-211.627c-27.307 0-47.787-20.48-47.787-47.787v-79.644h832.853v79.644c0 25.031-22.756 47.787-47.787 47.787zM607.573 832.569h-191.147v63.716h191.147v-63.716z" />
<glyph unicode="&#xe93d;" glyph-name="mouse-pointer" d="M862.436 45.227v0l-234.382 364.089 188.871 120.604c9.102 6.827 13.653 20.48 6.827 29.582-2.276 2.276-4.551 4.551-6.827 6.827l-625.778 391.396c-9.102 4.551-22.756 2.276-29.582-6.827-2.276-4.551-2.276-9.102-2.276-15.929l93.298-730.453c2.276-11.378 11.378-20.48 22.756-18.204 2.276 0 6.827 2.276 9.102 2.276l188.871 120.604 234.382-366.364c4.551-6.827 11.378-9.102 18.204-9.102 4.551 0 6.827 2.276 11.378 2.276l118.329 75.093c9.102 9.102 13.653 22.756 6.827 34.133z" />
<glyph unicode="&#xe93e;" glyph-name="paperclip" d="M948.907 839.396c-104.676 100.124-270.791 100.124-368.64 0l-521.102-521.102c-77.369-77.369-77.369-200.249 0-277.618 38.684-38.684 88.747-59.164 138.809-59.164s100.124 20.48 138.809 59.164l500.622 500.622c20.48 20.48 31.858 47.787 31.858 75.093s-11.378 54.613-31.858 75.093c-40.96 40.96-111.502 40.96-152.462 0l-370.916-368.64c-9.102-9.102-9.102-22.756 0-29.582 9.102-9.102 22.756-9.102 29.582 0l368.64 368.64c25.031 25.031 65.991 25.031 91.022 0 13.653-13.653 20.48-29.582 20.48-45.511s-6.827-31.858-20.48-45.511l-500.622-500.622c-61.44-61.44-157.013-61.44-216.178 0-61.44 61.44-61.44 157.013 0 216.178l523.378 523.378c81.92 81.92 220.729 81.92 307.2 0 81.92-81.92 81.92-220.729 0-307.2l-368.64-370.916c-9.102-9.102-9.102-22.756 0-29.582 9.102-9.102 22.756-9.102 29.582 0l368.64 368.64c102.4 104.676 102.4 268.516 2.276 368.64z" />
<glyph unicode="&#xe93f;" glyph-name="instagram" d="M1021.724 659.627c-9.102 184.32-111.502 288.996-298.098 298.098-54.613 2.276-72.818 2.276-211.627 2.276s-157.013 0-211.627-2.276c-184.32-9.102-288.996-111.502-298.098-298.098-2.276-54.613-2.276-72.818-2.276-211.627s0-157.013 2.276-211.627c9.102-186.596 111.502-288.996 298.098-298.098 54.613-2.276 72.818-2.276 211.627-2.276s157.013 0 211.627 2.276c186.596 9.102 288.996 111.502 298.098 298.098 2.276 54.613 2.276 72.818 2.276 211.627s0 157.013-2.276 211.627zM928.427 240.924c-6.827-136.533-70.542-202.524-209.351-209.351-54.613-2.276-70.542-2.276-207.076-2.276s-152.462 0-207.076 2.276c-138.809 6.827-202.524 72.818-209.351 209.351-2.276 54.613-2.276 70.542-2.276 207.076s0 152.462 2.276 207.076c6.827 138.809 70.542 202.524 209.351 209.351 54.613 2.276 70.542 2.276 207.076 2.276s152.462 0 207.076-2.276c138.809-6.827 202.524-72.818 209.351-209.351 2.276-54.613 2.276-70.542 2.276-207.076s0-152.462-2.276-207.076zM512 711.964c-145.636 0-263.964-118.329-263.964-263.964s118.329-263.964 263.964-263.964c145.636 0 263.964 118.329 263.964 263.964s-118.329 263.964-263.964 263.964zM512 277.333c-93.298 0-170.667 77.369-170.667 170.667s77.369 170.667 170.667 170.667 170.667-77.369 170.667-170.667c0-93.298-77.369-170.667-170.667-170.667zM846.507 721.067c0-33.932-27.508-61.44-61.44-61.44s-61.44 27.508-61.44 61.44c0 33.932 27.508 61.44 61.44 61.44s61.44-27.508 61.44-61.44z" />
</font>
</defs>
</svg>
